<svg width="56" height="56" viewBox="0 0 56 56" fill="none" xmlns="http://www.w3.org/2000/svg">
<rect width="56" height="56" rx="28" fill="#F5F5F5"/>
<path d="M36.1479 38.1858H34.1108V36.1487C34.1108 35.3383 33.7889 34.5612 33.2159 33.9881C32.6428 33.4151 31.8656 33.0932 31.0553 33.0932H24.9442C24.1338 33.0932 23.3566 33.4151 22.7836 33.9881C22.2105 34.5612 21.8886 35.3383 21.8886 36.1487V38.1858H19.8516V36.1487C19.8516 34.7981 20.3881 33.5028 21.3431 32.5477C22.2982 31.5927 23.5935 31.0561 24.9442 31.0561H31.0553C32.4059 31.0561 33.7012 31.5927 34.6563 32.5477C35.6113 33.5028 36.1479 34.7981 36.1479 36.1487V38.1858ZM27.9997 29.0191C27.1972 29.0191 26.4025 28.861 25.6611 28.5539C24.9197 28.2468 24.246 27.7967 23.6785 27.2292C23.111 26.6617 22.6609 25.988 22.3538 25.2466C22.0467 24.5052 21.8886 23.7105 21.8886 22.908C21.8886 22.1055 22.0467 21.3108 22.3538 20.5694C22.6609 19.8279 23.111 19.1542 23.6785 18.5868C24.246 18.0193 24.9197 17.5692 25.6611 17.2621C26.4025 16.9549 27.1972 16.7969 27.9997 16.7969C29.6205 16.7969 31.1749 17.4407 32.3209 18.5868C33.467 19.7328 34.1108 21.2872 34.1108 22.908C34.1108 24.5288 33.467 26.0831 32.3209 27.2292C31.1749 28.3753 29.6205 29.0191 27.9997 29.0191V29.0191ZM27.9997 26.9821C29.0802 26.9821 30.1165 26.5528 30.8805 25.7888C31.6446 25.0248 32.0738 23.9885 32.0738 22.908C32.0738 21.8275 31.6446 20.7912 30.8805 20.0272C30.1165 19.2631 29.0802 18.8339 27.9997 18.8339C26.9192 18.8339 25.8829 19.2631 25.1189 20.0272C24.3549 20.7912 23.9256 21.8275 23.9256 22.908C23.9256 23.9885 24.3549 25.0248 25.1189 25.7888C25.8829 26.5528 26.9192 26.9821 27.9997 26.9821V26.9821Z" fill="#9C9DA6"/>
</svg>
