<svg width="24" height="24" viewBox="0 0 24 24" fill="none" xmlns="http://www.w3.org/2000/svg">
<path fill-rule="evenodd" clip-rule="evenodd" d="M11.197 17.798C11.1558 17.7763 11.1106 17.7633 11.0642 17.7596C11.0179 17.756 10.9712 17.7619 10.9272 17.7768C10.8831 17.7918 10.8425 17.8156 10.808 17.8467C10.7734 17.8779 10.7455 17.9157 10.726 17.958C10.475 18.46 11.608 18.881 9.322 21.207C8.30819 22.2236 6.95769 22.8346 5.52477 22.9248C4.09185 23.0151 2.67536 22.5784 1.542 21.697C1.89329 21.7066 2.24239 21.6389 2.56465 21.4988C2.88691 21.3586 3.17447 21.1494 3.407 20.886C5.412 19.011 4.61 15.362 7.778 15.522C9.262 15.602 9.192 16.274 9.693 16.735C10.435 17.417 10.696 16.445 10.224 16.355C9.754 16.265 9.964 15.021 7.838 14.761C3.998 14.339 4.34 18.46 2.615 20.034C1.853 20.736 1.302 20.545 0.741004 20.826C0.179004 21.106 -0.070996 21.828 0.741004 22.56C1.53756 23.175 2.45891 23.6086 3.44056 23.8303C4.42221 24.052 5.44046 24.0565 6.42405 23.8436C7.40763 23.6306 8.3328 23.2052 9.13479 22.5973C9.93679 21.9893 10.5962 21.2134 11.067 20.324C11.457 19.633 11.909 18.139 11.197 17.798ZM19.678 0.193955C17.442 0.845955 15.918 2.56995 14.665 4.57495C12.4 8.43495 12.48 8.10396 10.845 10.821C8.53 14.721 9.132 13.357 8.811 13.918C8.77468 13.9603 8.75007 14.0115 8.73962 14.0663C8.72917 14.1211 8.73325 14.1778 8.75144 14.2305C8.76964 14.2833 8.80132 14.3304 8.84335 14.3671C8.88537 14.4039 8.93628 14.429 8.991 14.44C9.543 14.62 11.227 11.653 11.518 11.222C11.968 10.52 12.46 9.82796 12.941 9.13696C15.297 5.52696 16.159 4.01396 17.503 2.78096C19.437 1.01596 22.686 0.233955 22.515 2.78096C22.365 6.60096 17.432 9.63795 14.976 12.214C14.435 12.776 13.974 13.427 13.442 14.039C12.189 15.512 11.117 15.873 11.297 16.355C11.577 17.086 12.64 15.853 13.302 15.352C14.164 14.6 14.806 13.638 15.598 12.866C18.134 10.4 21.683 8.47496 23.237 5.05596C24.791 1.63696 22.817 -0.708045 19.678 0.193955Z" fill="#F2D8CA"/>
<path fill-rule="evenodd" clip-rule="evenodd" d="M18.495 4.99595C19.5694 4.22377 20.5281 3.30214 21.342 2.25895C21.3535 2.17813 21.3326 2.09605 21.2839 2.03052C21.2353 1.96499 21.1627 1.92131 21.082 1.90895C20.8272 1.86628 20.5657 1.88883 20.3219 1.97452C20.0782 2.0602 19.8601 2.20622 19.688 2.39895C18.9945 3.11881 18.3732 3.9049 17.833 4.74595C17.8476 4.81493 17.8792 4.87913 17.9251 4.93264C17.971 4.98615 18.0296 5.02725 18.0956 5.05216C18.1615 5.07706 18.2327 5.08497 18.3025 5.07514C18.3723 5.06532 18.4385 5.03809 18.495 4.99595Z" fill="#F2D8CA"/>
</svg>
