<svg width="24" height="24" viewBox="0 0 24 24" fill="none" xmlns="http://www.w3.org/2000/svg">
<path fill-rule="evenodd" clip-rule="evenodd" d="M18.75 13.5C18.75 15.2902 18.0388 17.0071 16.773 18.273C15.5071 19.5388 13.7902 20.25 12 20.25C10.2098 20.25 8.4929 19.5388 7.22703 18.273C5.96116 17.0071 5.25 15.2902 5.25 13.5C5.25 11.043 6.3915 8.637 7.9335 6.54C9.11646 4.96019 10.4831 3.52663 12.0045 2.2695C12.891 2.9895 14.5875 4.494 16.065 6.495C17.601 8.5785 18.75 10.995 18.75 13.5ZM21 13.5C21 15.8869 20.0518 18.1761 18.364 19.864C16.6761 21.5518 14.3869 22.5 12 22.5C9.61305 22.5 7.32387 21.5518 5.63604 19.864C3.94821 18.1761 3 15.8869 3 13.5C3 7.2285 8.769 2.0055 10.659 0.4635C11.0385 0.153 11.514 0 12.0045 0C12.489 0 12.96 0.15 13.3365 0.453C15.222 1.968 21 7.1385 21 13.5ZM12 18.375C11.7016 18.375 11.4155 18.2565 11.2045 18.0455C10.9935 17.8345 10.875 17.5484 10.875 17.25C10.875 16.9516 10.9935 16.6655 11.2045 16.4545C11.4155 16.2435 11.7016 16.125 12 16.125C12.6962 16.125 13.3639 15.8484 13.8562 15.3562C14.3484 14.8639 14.625 14.1962 14.625 13.5C14.625 13.2016 14.7435 12.9155 14.9545 12.7045C15.1655 12.4935 15.4516 12.375 15.75 12.375C16.0484 12.375 16.3345 12.4935 16.5455 12.7045C16.7565 12.9155 16.875 13.2016 16.875 13.5C16.875 14.7929 16.3614 16.0329 15.4471 16.9471C14.5329 17.8614 13.2929 18.375 12 18.375Z" fill="#F2D8CA"/>
</svg>
