<svg width="24" height="24" viewBox="0 0 24 24" fill="none" xmlns="http://www.w3.org/2000/svg">
<path d="M3.76414 10.8875C5.51529 10.8875 5.79643 10.1662 6.57343 10.1662C6.75129 10.1662 6.88243 10.2035 7.11686 10.3162L8.70857 11.1588C8.89571 11.2616 9.05486 11.3553 9.186 11.4399H9.24214C9.45771 10.653 9.804 10.1473 10.4036 9.77276V9.71704L8.26843 8.5839C7.60371 8.22818 7.54714 7.93761 7.54714 7.10404C7.54714 4.98776 5.862 3.30261 3.76414 3.30261C1.67614 3.30261 0 4.99718 0 7.10361C0 9.20147 1.67614 10.8875 3.76414 10.8875ZM3.76414 9.36047C2.53757 9.36047 1.53557 8.33961 1.53557 7.10361C1.53557 5.83933 2.53757 4.83776 3.76414 4.83776C5.02843 4.83776 6.021 5.83976 6.021 7.10361C6.02168 7.40018 5.96377 7.69396 5.85059 7.96808C5.73741 8.2422 5.5712 8.49126 5.36149 8.70096C5.15179 8.91067 4.90273 9.07688 4.62861 9.19006C4.35449 9.30324 4.06071 9.36115 3.76414 9.36047ZM3.76414 21.543C5.862 21.543 7.54714 19.8575 7.54714 17.7416C7.54714 16.9642 7.58486 16.6552 8.15571 16.3462L24 7.92818C23.616 6.52376 22.0899 6.28033 19.758 7.1139L11.7609 9.98833C10.6376 10.3912 10.1597 10.9436 9.85071 11.9829L9.66386 12.6665C9.52329 13.1533 9.30814 13.3968 8.57743 13.7713L7.11686 14.5393C6.88243 14.661 6.75129 14.6983 6.57343 14.6983C5.79643 14.6983 5.51529 13.968 3.76414 13.968C1.67614 13.968 0 15.6536 0 17.7416C0 19.8485 1.67614 21.5435 3.76414 21.5435M11.9764 12.7038C11.5551 12.7038 11.19 12.3575 11.19 11.9268C11.19 11.4772 11.5551 11.1399 11.9764 11.1399C12.4071 11.1399 12.7723 11.4772 12.7723 11.9268C12.7723 12.3575 12.4071 12.7038 11.9764 12.7038ZM19.758 17.7605C22.1083 18.6313 23.616 18.3502 24 16.9085L16.3779 12.8816L12.51 14.9143V15.0266L19.758 17.7605ZM3.76414 20.0079C2.53757 20.0079 1.53557 19.0059 1.53557 17.7416C1.53557 16.5056 2.53757 15.4942 3.76414 15.4942C5.02843 15.4942 6.021 16.5056 6.021 17.7416C6.021 19.0059 5.02843 20.0079 3.76414 20.0079Z" fill="#F2D8CA"/>
</svg>
