<svg width="143" height="88" viewBox="0 0 143 88" fill="none" xmlns="http://www.w3.org/2000/svg">
<path fill-rule="evenodd" clip-rule="evenodd" d="M49.9828 38.7135C50.4337 38.4125 50.6442 38.2345 51.0382 37.8416L51.6845 37.1974C52.1165 36.7664 52.572 36.3417 53.0623 35.9769C53.3334 35.7751 53.5675 35.6287 53.8393 35.4457C54.4802 35.0142 55.4074 34.6682 56.156 34.5084C57.039 34.3198 58.1614 34.1616 59.0227 34.4082C59.1038 34.4314 59.2018 34.4591 59.2712 34.4867C59.3078 34.5013 59.3408 34.5154 59.3801 34.5328C59.6379 34.6472 59.8689 34.8006 60.0678 34.9982C60.7405 35.666 61.0221 37.0477 61.3237 37.9553C61.376 38.113 61.4365 38.2703 61.5009 38.4315C61.5565 38.5705 61.6696 38.7529 61.7006 38.8853C62.0217 38.8853 62.1648 38.8587 62.4209 38.796C62.6469 38.7405 62.8203 38.653 63.0103 38.5588C63.7782 38.1781 64.9083 37.0553 65.7732 36.589C66.3063 36.3014 66.7268 36.0667 67.3118 35.8722C68.3273 35.5346 69.3764 35.3526 70.4544 35.2945C71.0786 35.2609 71.9839 35.2609 72.5938 35.3263C72.8617 35.3551 73.1266 35.351 73.3939 35.3877C73.5242 35.4056 73.6576 35.421 73.7808 35.4315C74.0428 35.4541 74.2897 35.4901 74.5459 35.5276C75.0476 35.6013 75.5407 35.6562 76.0273 35.7688C76.2693 35.8249 76.4984 35.8599 76.7374 35.9198C76.9724 35.9788 77.1992 36.0246 77.4273 36.091C78.0874 36.2829 78.7479 36.4607 79.3856 36.7156L79.8436 36.8946C80.3227 37.0744 80.9882 37.4 81.4541 37.66L82.0009 37.9738C82.4483 38.2406 82.8881 38.5266 83.3048 38.8386L84.7098 40.0148C84.8567 40.163 84.9927 40.2971 85.1405 40.4444L85.9849 41.3206C86.1331 41.4683 86.2624 41.6081 86.4246 41.7411C86.6876 41.957 86.8159 41.8876 87.2062 41.7565C87.5895 41.6277 87.4575 41.645 87.6904 41.3802L87.9067 41.1664C88.5856 40.5713 89.7374 40.191 90.6161 40.191C90.8556 40.191 91.1146 40.1839 91.3475 40.2177C91.642 40.2603 91.9187 40.2875 92.2015 40.3627C92.334 40.3978 92.4721 40.4324 92.6043 40.4765L93.3437 40.7529C93.5822 40.8554 93.7925 40.9846 94.0108 41.1014C94.3124 41.263 94.8286 41.6406 95.0593 41.9287L95.5672 42.5734C95.6983 42.7861 95.8292 42.9929 95.9351 43.2203C96.2718 43.9442 96.3783 44.4959 96.3549 45.2769C96.344 45.6423 96.2517 45.9892 96.1366 46.3307C96.0555 46.5714 95.9268 46.7835 95.7758 46.9845L95.5488 47.2565L94.6794 47.9188L94.0484 48.3033C93.8601 48.4159 93.9073 48.4211 93.9073 48.6264C93.9073 49.4696 94.1983 50.1057 94.5177 50.8184C94.6223 51.0518 94.7852 51.314 94.9168 51.5371C95.3562 52.283 95.8547 52.989 96.2954 53.7363C96.4384 53.9789 96.5764 54.2052 96.6867 54.4628C96.8953 54.9503 97.0463 55.2659 97.2138 55.81C97.6681 57.2872 97.5349 58.6788 96.0212 59.4273C95.6196 59.6258 95.1897 59.7908 94.7624 59.9418C94.5601 60.0133 94.3331 60.1118 94.1677 60.2422C94.0569 60.3296 94.0517 60.3746 94.0206 60.5423C93.9281 61.0416 94.0023 61.587 94.0447 62.0792C94.0717 62.3928 94.1319 62.7475 94.1487 63.0578C94.1526 63.1301 94.1445 63.2091 94.1485 63.2814C94.1528 63.361 94.172 63.3896 94.1663 63.4871C94.1477 63.8076 94.1206 64.2069 94.0582 64.4969C93.9092 65.1909 93.5737 65.8958 93.1185 66.4119C92.5454 67.0619 92.0419 67.4467 91.2764 67.874C91.1723 67.932 91.0857 67.97 90.973 68.0181C90.5476 68.1993 90.1279 68.3734 89.6682 68.487C88.1588 68.8598 86.6141 68.8488 85.1805 68.2538C84.9807 68.1709 84.7992 68.0677 84.616 67.9576L84.0919 67.621C83.7411 67.3877 83.3869 67.1598 82.9896 67.002C82.8848 66.9602 82.7824 66.9148 82.672 66.8892C82.1807 67.2171 81.5793 68.0705 81.1782 68.5438C81.1362 68.5932 81.1062 68.6388 81.0643 68.688C81.0393 68.7176 81.0216 68.7295 80.9964 68.7577C80.7695 69.0123 80.5509 69.271 80.3066 69.5131C80.2519 69.5676 80.2328 69.6055 80.1782 69.6599L79.3501 70.3978C79.1334 70.5866 78.833 70.8039 78.5872 70.96C78.316 71.1321 78.0458 71.31 77.7551 71.4533L77.4165 71.6312C76.9294 71.8704 76.4083 72.0586 75.8934 72.2257C75.822 72.249 75.7604 72.2651 75.693 72.2837C75.0319 72.4662 74.3861 72.6059 73.6972 72.682C73.397 72.7152 73.0598 72.7619 72.7285 72.7642C72.6294 72.7648 72.5987 72.7828 72.4883 72.7824C72.3962 72.7821 72.3041 72.7823 72.212 72.7818C72.1012 72.7812 72.0631 72.7969 71.9715 72.7997C71.7055 72.8077 71.4541 72.7807 71.1953 72.7822C70.8932 72.784 70.059 72.6926 69.7552 72.6373C69.6045 72.6099 69.4585 72.5847 69.3147 72.5611C68.4608 72.4215 67.6423 72.1426 66.8378 71.8523C66.4605 71.7161 65.7448 71.3947 65.3916 71.1809C65.2803 71.1135 65.1531 71.061 65.0469 70.9921C64.5233 70.6521 63.8176 70.2177 63.385 69.7798C63.3269 69.7211 63.3024 69.7026 63.2393 69.6502C62.9617 69.4188 62.4616 68.8171 62.2621 68.5112C62.036 68.1647 61.8712 67.8711 61.6627 67.5282C61.4857 67.2368 61.523 67.1307 61.1936 66.9307C61.131 66.8929 61.095 66.8682 61.0342 66.832C60.7895 66.687 60.8642 66.7046 60.5171 66.8775C60.287 66.9921 60.0796 67.1362 59.8672 67.2774C59.754 67.3526 59.6544 67.4131 59.5431 67.4871C58.8839 67.9255 58.1764 68.2866 57.4248 68.5363C57.2843 68.583 57.1696 68.6247 57.0169 68.6621C56.8794 68.6959 56.7472 68.7422 56.5927 68.7719C56.4491 68.7996 56.297 68.8303 56.1658 68.8616C55.8605 68.9347 55.3276 68.9967 54.9967 69.0189L53.7395 69.0538C53.1154 69.0195 52.9425 69.0264 52.3042 68.9213C51.36 68.766 50.7547 68.5555 49.8789 68.161C49.4126 67.9509 48.9739 67.6612 48.5696 67.3532L47.6339 66.4478C47.47 66.2534 47.3377 66.0485 47.1946 65.8377C47.0539 65.6304 46.9284 65.3783 46.8364 65.1469C46.4933 64.2846 46.3875 63.3893 46.5532 62.4219L46.7067 61.7846C46.8956 61.1367 47.1777 60.5395 47.5259 59.9728C47.997 59.2059 48.7125 58.4445 49.4142 57.9038L49.5641 57.7785C49.6654 57.693 49.7452 57.6099 49.8474 57.5284C50.0373 57.3774 50.2157 57.1893 50.3753 57.0067C50.5492 56.8076 50.6697 56.5893 50.7927 56.3576C50.0346 56.3576 49.1459 56.8229 48.5422 57.2235C47.7698 57.7362 47.1374 58.4358 46.583 59.1702C45.748 60.2764 45.1233 61.7907 45.1233 63.2641C45.1233 63.8337 45.2266 64.3359 45.3839 64.8255L45.6683 65.6586C45.8063 66.0714 45.9079 66.3665 45.9755 66.8127C46.043 67.2573 45.9151 67.7098 45.8371 68.099C45.7539 68.5137 45.6845 68.9113 45.6155 69.3385C45.5794 69.5618 45.5477 69.7575 45.5168 69.9788C45.4131 70.7227 45.3076 71.5081 45.2297 72.2523L45.1723 72.9339C45.1617 73.0338 45.1452 73.1707 45.1404 73.2801C45.1366 73.3696 45.1216 73.5316 45.1108 73.6113L45.0543 74.4656C45.0511 74.5267 45.057 74.5936 45.0549 74.6552L45.0372 74.9983C45.0378 75.1441 45.019 75.2168 45.0198 75.359L45.0207 75.9095C45.0195 75.9981 45.0067 76.0041 45.0026 76.0805C44.9916 76.282 45.0189 76.853 45.0193 77.1464L45.1479 78.8736C45.2098 79.3192 45.2629 79.714 45.3578 80.1247C45.5256 80.8513 45.7646 81.6174 46.2062 82.2167C46.359 82.4241 46.7394 82.8403 47.0016 82.9011C47.0237 82.8066 47.0958 82.7281 47.1325 82.6365C47.5137 81.6867 47.1565 79.9765 47.0041 79.0504C46.7266 77.364 46.4847 76.692 46.4847 74.8436C46.4847 74.5286 46.4919 74.2601 46.5013 73.9497L46.5583 73.096C46.575 72.9737 46.5761 72.8239 46.5953 72.6862C46.6534 72.2723 46.6695 71.8904 46.7334 71.4323C46.7851 71.0618 47.1567 68.3925 47.1567 68.1777C47.2708 68.2042 47.372 68.2887 47.4728 68.3435L49.2242 69.2947C49.3922 69.3685 49.5589 69.4621 49.7349 69.5243C49.8607 69.5686 49.9645 69.6146 50.084 69.6574C50.204 69.7004 50.3284 69.7389 50.4586 69.7821C50.6317 69.8395 52.5995 70.4244 52.7744 70.4284C52.7744 70.563 52.8074 70.71 52.7891 70.8725C52.7746 71.0005 52.7879 71.1836 52.7697 71.3169C52.7537 71.4332 52.7461 71.6185 52.7396 71.7509C52.7133 72.2806 52.5946 73.3317 52.536 73.8844C52.4662 74.5431 52.3522 75.8281 52.3442 76.4764C52.343 76.5719 52.3268 76.5859 52.3257 76.6812C52.3117 77.8119 52.2833 78.7568 52.5116 79.899C52.5794 80.2384 52.6661 80.5327 52.7963 80.8348L52.9928 81.2403C53.02 81.2897 53.0426 81.3179 53.0742 81.3653C53.2341 81.6042 53.4334 81.8247 53.6702 81.9908C53.7551 82.0502 54.1158 82.2483 54.2391 82.2483C54.3338 82.2483 54.3942 81.6439 54.3942 81.5611C54.3942 81.0261 54.36 80.5956 54.2736 80.0836C54.2129 79.7236 54.1486 79.3799 54.0795 79.0229C53.9563 78.387 53.7566 77.4528 53.7566 76.8193L53.7737 75.1871C53.7825 75.0241 53.8101 74.8341 53.8082 74.6719C53.8045 74.3419 53.8616 73.988 53.8773 73.6583C53.8932 73.3257 53.9471 72.9799 53.9637 72.6449L54.1185 70.6002C54.3789 70.4755 55.6732 70.1775 55.8774 70.1547C56.2046 70.1185 56.5526 70.127 56.8724 70.0472C57.1579 69.976 57.4291 69.8798 57.7134 69.7861C58.4327 69.5496 59.3433 69.1213 60.061 68.8281L60.638 68.5786C60.6932 68.552 60.7743 68.5095 60.8389 68.5041C60.8562 68.5683 61.0048 68.7694 61.0526 68.8409C61.2942 69.2036 61.8215 69.9096 62.1442 70.2265C62.2032 70.2843 62.2216 70.309 62.2743 70.3716C62.4661 70.6005 62.8782 70.9675 63.1268 71.1882L63.4287 71.437C63.9617 71.8302 64.1407 71.9784 64.7431 72.3428C64.8073 72.3816 64.8577 72.4043 64.9197 72.4417C65.2195 72.6222 65.5362 72.7511 65.8479 72.9079C65.9707 72.9698 66.1094 73.0198 66.2329 73.0738L66.6314 73.2262C68.6149 73.9644 70.7363 74.1908 72.9704 74.1908C73.3523 74.1908 73.6748 74.1736 74.056 74.1736C74.056 74.2827 73.8808 75.233 73.8589 75.3687C73.7776 75.8715 73.7198 76.4025 73.6627 76.9084L73.6076 77.5407C73.6005 77.8387 73.5477 78.2682 73.5671 78.5456C73.5829 78.773 73.5737 79.0109 73.5735 79.2418C73.5732 79.4542 73.5895 79.6854 73.6105 79.8921C73.686 80.6347 73.8427 81.4208 74.2593 82.0456C74.525 82.444 75.0177 82.8497 75.5724 82.8497C75.6396 82.8497 75.6227 82.7938 75.6254 82.7307C75.6336 82.5531 75.6586 82.3836 75.6586 82.1967C75.6586 81.4639 75.5659 80.814 75.4681 80.119L75.2867 78.7707C75.2693 78.6471 75.2567 78.554 75.2436 78.4358C75.1914 77.9705 75.1386 77.4893 75.1249 77.025L75.1072 76.6475C75.1072 76.0213 75.1822 75.3984 75.3419 74.9231C75.4546 74.5871 75.618 74.2247 75.8521 73.9714C75.9445 73.8716 76.0259 73.8291 76.1418 73.7621C76.2412 73.7046 76.3538 73.6555 76.4626 73.6008L76.8058 73.4448C77.1423 73.3062 77.4778 73.1362 77.8123 72.9879C78.1427 72.8415 78.4915 72.6488 78.812 72.4899C79.2396 72.2779 79.6539 72.0225 80.0561 71.7717C80.2523 71.6493 80.4585 71.5083 80.6386 71.3733C80.9629 71.13 81.2852 70.87 81.5823 70.596C81.7109 70.4773 81.8206 70.3391 81.944 70.2178C82.0317 70.1317 82.0948 70.0438 82.1761 69.9511L82.7721 69.0678C82.8303 68.9719 82.9048 68.8373 82.9304 68.7274C83.1244 68.7725 84.7488 69.4938 85.1385 69.6529C85.2494 69.6982 85.3638 69.74 85.4636 69.7926C85.4476 69.8611 85.4241 69.9174 85.401 69.9879C85.3754 70.0658 85.3621 70.1214 85.3364 70.1983C85.2444 70.4717 85.1704 70.7624 85.098 71.0431C84.9074 71.7834 84.7454 72.5229 84.5948 73.2731C84.4447 74.0212 84.0654 76.3124 84.0332 77.0597C84.0227 77.3046 83.9838 77.5645 83.9653 77.7996C83.9435 78.0779 83.8839 79.4684 83.8963 79.6189C83.9103 79.7862 83.9131 79.9605 83.9123 80.1527C83.9111 80.4621 83.9628 80.8652 83.9974 81.1674C84.089 81.9658 84.2967 82.9307 84.925 83.4897C85.1675 83.7053 85.4708 83.7773 85.8082 83.7773C85.9039 83.7773 85.9104 83.7603 85.9978 83.7603C86.0148 83.5568 86.0839 83.467 86.0839 83.1245C86.0839 82.1881 85.9152 81.3548 85.8271 80.4428L85.7382 79.4319C85.7112 79.079 85.6858 78.7416 85.6877 78.3654C85.6883 78.2266 85.6696 78.161 85.6703 78.0221C85.6718 77.7026 85.6437 77.1519 85.6829 76.8662L85.7049 76.3556C85.7235 76.0124 85.7282 75.6659 85.769 75.3543L85.8649 74.4019C85.9425 73.7842 86.0335 73.1733 86.1429 72.5659C86.1994 72.253 86.2569 71.9802 86.318 71.6753C86.3579 71.4767 86.6389 70.1191 86.7216 69.9473C87.0145 69.9473 87.3074 69.9467 87.6004 69.9473C87.8007 69.9476 88.2419 69.9317 88.4348 69.903L88.8289 69.8664C89.7905 69.7447 90.7403 69.5402 91.5925 69.0826C91.8783 68.9291 92.1605 68.7617 92.4206 68.5681L93.1363 67.9758C93.214 67.898 93.2992 67.8451 93.3659 67.7581C93.4972 67.5871 93.6617 67.4772 93.7989 67.3135C93.8427 67.2613 93.8524 67.2434 93.9029 67.1941C94.259 66.8464 94.711 66.1748 94.8947 65.7433C95.3227 64.7379 95.1464 63.5107 95.0304 62.4707C94.9944 62.1467 94.924 61.7318 94.924 61.4257C95.0298 61.4257 95.2549 61.3787 95.3564 61.3587C95.9171 61.2482 96.4922 61.0903 96.9883 60.821L97.5574 60.4778C97.6597 60.4089 97.7448 60.3247 97.8436 60.2477C97.9875 60.1357 98.1005 59.9996 98.2195 59.8666C98.5137 59.5376 98.7215 59.1177 98.8597 58.7008C99.238 57.5595 99.0222 56.2584 98.6828 55.1529C98.4297 54.3284 97.9367 53.3058 97.4781 52.5742C97.4505 52.5302 97.4304 52.5078 97.3981 52.4651L96.47 51.2256C96.1878 50.8508 95.8345 50.3354 95.5392 49.9889C95.2922 49.6989 95.4462 49.9039 95.2514 49.5371L95.6006 49.2323C95.7875 49.0507 95.9992 48.8953 96.2017 48.7319L96.5479 48.4244C96.7432 48.244 96.9315 48.0662 97.0929 47.8511C97.3387 47.5237 97.5602 47.1196 97.6848 46.6715L97.7741 46.3312C97.8068 46.2031 97.8228 46.0945 97.8461 45.9562C98.325 43.1152 96.6113 40.6226 94.189 39.4634C93.9274 39.3382 93.6559 39.2275 93.3732 39.143C92.4222 38.8586 92.3019 38.8908 91.3899 38.8169L90.8573 38.8509C90.6741 38.8715 90.5242 38.8989 90.3502 38.9296C90.0327 38.9853 89.7491 39.085 89.4588 39.1919C89.3113 39.2462 89.1984 39.2958 89.0593 39.3606C88.6656 39.5439 88.3016 39.7523 87.9223 39.9621L87.3707 40.2712C87.3143 40.3015 87.2281 40.3492 87.1695 40.3627C87.1305 40.289 87.0878 40.2381 87.0386 40.1669L86.7363 39.781C86.5154 39.509 86.1721 39.1174 85.9248 38.8894L85.3903 38.4085C85.2241 38.2507 85.0068 38.0798 84.8236 37.9428C84.689 37.8422 84.5673 37.7448 84.4324 37.6455C83.6306 37.0559 82.7584 36.5574 81.8678 36.1135C81.2466 35.8038 80.606 35.5336 79.9566 35.2873C79.7903 35.2243 79.6285 35.1618 79.4647 35.1078C79.288 35.0494 79.1311 34.9862 78.9521 34.9316C77.386 34.4537 76.1014 34.1465 74.4646 33.9423C74.0478 33.8903 73.65 33.8561 73.2116 33.8342L72.8889 33.8124C72.7224 33.7897 72.0742 33.7827 71.8847 33.7827C71.6258 33.7827 71.4197 33.8011 71.1607 33.7996L70.4398 33.8368C70.2258 33.8599 69.9836 33.8784 69.7652 33.9029C69.5388 33.9283 69.3221 33.9654 69.0944 33.9901C68.4543 34.0597 67.2276 34.3769 66.67 34.5623C66.2968 34.6863 65.9436 34.8269 65.5851 34.9754L65.0838 35.2143C64.9159 35.3045 64.7634 35.3952 64.6094 35.4974C64.305 35.6991 64.0335 35.912 63.7552 36.1404L63.3307 36.456C63.208 36.5368 62.9934 36.7009 62.8551 36.7377C62.841 36.6848 62.7938 36.6211 62.762 36.5729C62.7244 36.516 62.6977 36.4674 62.6646 36.4123L62.0679 35.4094C61.9978 35.2926 61.9394 35.2077 61.8658 35.0956L61.6463 34.7818C61.6065 34.728 61.5816 34.6871 61.5382 34.6318L61.2921 34.3446C61.0942 34.109 60.8535 33.8896 60.5942 33.7176C60.124 33.4057 59.6711 33.1914 59.0887 33.0882C58.6398 33.0087 58.179 32.9846 57.7026 33.0095C57.0918 33.0415 56.4609 33.1916 55.8761 33.336C55.6537 33.3909 55.4168 33.4669 55.2115 33.5495C54.7581 33.7323 54.4913 33.8593 54.0436 34.1032C53.7658 34.2546 53.5107 34.4261 53.2596 34.61C53.0905 34.7338 52.9186 34.85 52.7615 34.9898L52.0807 35.5995C51.9282 35.7516 51.806 35.8789 51.6664 36.0455L51.5188 36.2075C51.0098 36.8364 50.6148 37.3672 50.247 38.1007C50.1943 38.2059 50.1586 38.2822 50.1093 38.3928C50.0796 38.4592 49.9878 38.6537 49.9828 38.7135Z" fill="#08060A"/>
<path fill-rule="evenodd" clip-rule="evenodd" d="M33.0511 50.8569C33.0511 52.0712 33.5378 53.0133 34.4814 53.64C34.9082 53.9237 35.3784 54.1414 35.9386 54.3004C36.2159 54.3791 36.4912 54.45 36.7903 54.4992C37.3418 54.5899 37.9174 54.6567 38.4794 54.6535L38.9969 54.6716C39.0965 54.6704 39.1267 54.6529 39.237 54.6534C39.3235 54.6537 39.4099 54.6537 39.4963 54.654L40.7317 54.5628C41.3381 54.4873 41.9762 54.4048 42.5733 54.2856C42.883 54.2239 43.1516 54.1618 43.452 54.0966C44.1208 53.9515 44.8454 53.7344 45.4754 53.4854C45.8528 53.3361 46.2463 53.2034 46.6176 53.0434C46.7442 52.9889 46.8531 52.9426 46.9794 52.8888C47.1097 52.8333 47.2202 52.7796 47.3488 52.7244C47.6075 52.6134 47.8256 52.5028 48.0718 52.3801C48.8841 51.9752 49.6623 51.535 50.3841 50.9918L51.5369 50.028C51.7221 49.8654 51.8879 49.677 52.0624 49.5037L52.7917 48.6332C53.0204 48.3288 53.2293 48.0133 53.4269 47.6859C53.6301 47.3489 53.8 47.0029 53.9767 46.6535C54.0946 46.4202 54.1977 46.0982 54.2982 45.9088C54.5541 45.9682 55.1238 46.4026 55.3366 46.5915L55.6121 46.8324C55.8191 47.0255 56.0573 47.2137 56.2872 47.3791L56.4897 47.5207C57.0818 47.9096 57.8363 48.0048 58.5616 47.8228C58.6523 47.8001 58.8205 47.7685 58.868 47.7159C58.8821 47.7003 58.8949 47.6793 58.9126 47.6574L59.044 47.4792C59.3313 47.0469 59.5023 46.6663 59.5023 46.115C59.5023 45.7966 59.3943 45.5705 59.2843 45.353C59.23 45.2456 59.1599 45.1613 59.0866 45.0691C58.6174 44.48 57.545 43.9157 56.7972 43.8983C55.8183 43.8757 55.435 44.0397 54.5578 44.1061C54.0214 44.1466 54.1249 44.237 53.8355 43.879C53.7928 43.8262 53.7626 43.8 53.7173 43.7393C53.6766 43.6848 53.6476 43.6448 53.6051 43.5934L53.2644 43.16C53.2203 43.1029 53.1852 43.0755 53.1364 43.0125C53.0301 42.8754 52.8783 42.7409 52.7434 42.6314C52.4907 42.4262 52.253 42.251 51.949 42.1005C50.7493 41.5063 49.3395 41.4076 47.9569 41.4076C47.8182 41.4076 47.7068 41.4096 47.5925 41.4223L47.2334 41.4423C46.691 41.4552 45.7012 41.6144 45.227 41.7096C44.3847 41.879 43.604 42.0614 42.7978 42.3287C42.4125 42.4564 42.0401 42.5738 41.6723 42.7183L41.1256 42.9293C40.5875 43.1432 40.0522 43.3718 39.5359 43.6294C39.3223 43.736 38.9835 43.8964 38.786 44.0156C38.3068 44.305 37.8175 44.5618 37.3522 44.8711C36.9919 45.1106 36.3355 45.5623 36.0283 45.8361C35.8589 45.9869 35.6798 46.1152 35.5193 46.2736C35.4837 46.3086 35.4605 46.3328 35.4248 46.3684L35.0284 46.7463C34.9571 46.817 34.9177 46.8752 34.8476 46.944C34.5372 47.2489 34.248 47.6406 34.0092 47.9979C33.6915 48.4729 33.4267 48.9798 33.2556 49.5316C33.1418 49.8986 33.0511 50.3751 33.0511 50.8569Z" fill="#08060A"/>
<path fill-rule="evenodd" clip-rule="evenodd" d="M121.068 51.1586C121.674 50.9906 121.908 51.8901 121.323 52.0516C121.027 52.1333 120.799 51.9353 120.743 51.7179C120.671 51.4349 120.858 51.2168 121.068 51.1586ZM135.599 49.0871C136.087 49.0871 136.664 49.2008 137.087 49.3904C137.296 49.4837 137.49 49.5707 137.667 49.6882C137.961 49.8831 138.15 50.0207 138.404 50.2764C138.594 50.4676 138.843 50.8303 138.959 51.0629C139.301 51.7456 139.442 52.6697 139.139 53.424C139.09 53.5464 139.029 53.663 138.957 53.7579C138.681 54.1241 138.469 54.2489 138.069 54.4182C137.822 54.5224 137.382 54.5676 137.116 54.5676C136.525 54.5676 135.907 54.4022 135.404 54.1612C135.095 54.0136 134.907 53.8829 134.642 53.6839C134.599 53.6521 134.571 53.6355 134.535 53.6013C134.4 53.4746 134.289 53.3881 134.171 53.2422L134.014 53.056C133.961 52.9874 133.918 52.9204 133.866 52.8428C133.639 52.505 133.42 51.9178 133.41 51.5101C133.407 51.4063 133.389 51.248 133.4 51.1735C133.417 51.066 133.408 50.9504 133.425 50.854C133.445 50.7432 133.456 50.656 133.485 50.5532C133.62 50.0912 133.804 49.7831 134.211 49.4894C134.295 49.4286 134.348 49.4074 134.437 49.3545C134.73 49.1802 135.235 49.0871 135.599 49.0871ZM127.448 41.7339C127.443 41.7062 127.464 41.4426 127.47 41.3947C127.482 41.3021 127.505 41.1783 127.532 41.096C127.711 40.5493 127.961 40.2094 128.486 39.8817C129.172 39.4535 130.149 39.2531 131.061 39.6608L131.538 39.9072C131.691 39.9978 131.818 40.1043 131.956 40.2122C132.026 40.2671 132.087 40.3194 132.149 40.3809C132.436 40.6702 132.49 40.7383 132.722 41.0638C133.061 41.54 133.311 42.1604 133.389 42.7692C133.446 43.2149 133.349 43.6694 133.193 43.9735C132.66 45.0126 131.085 45.2282 130.087 44.8929C129.474 44.6871 129.389 44.6016 128.899 44.2734C128.798 44.2057 128.521 43.9505 128.426 43.8518C128.385 43.8092 128.379 43.7897 128.34 43.7482C128.276 43.6793 128.231 43.628 128.175 43.5527C128.123 43.4838 128.067 43.4173 128.02 43.3458L127.756 42.8876C127.585 42.4739 127.488 42.2664 127.466 41.8193C127.463 41.7466 127.454 41.7654 127.448 41.7339ZM126.346 41.3731C126.346 42.1723 126.521 42.9403 126.828 43.6235C126.95 43.8943 127.109 44.1638 127.242 44.4141C126.342 45.7541 121.311 49.6339 120.266 50.065C117.385 50.327 109.837 49.1634 108.171 50.0545C107.838 50.2328 107.712 50.603 107.608 50.9534C107.577 51.0576 107.513 51.2481 107.511 51.3548C107.608 51.3548 107.718 51.3896 107.806 51.4041L108.702 51.5759C109.107 51.6428 109.51 51.7324 109.908 51.7994L112.346 52.2042C112.765 52.2713 113.162 52.3163 113.587 52.3757C114.433 52.4943 115.307 52.5755 116.162 52.6424C116.617 52.678 117.081 52.6949 117.54 52.6949C117.47 52.7993 117.401 52.894 117.33 53.0008C117.02 53.4681 115.713 55.0713 115.46 55.3804C115.14 55.7718 114.833 56.1817 114.541 56.5947L114.325 56.9111C114.205 57.0884 113.973 57.4187 113.973 57.6257C113.973 57.6967 114.284 57.9316 114.357 57.9643C114.483 58.0208 114.824 58.0552 115.007 58.0552C115.276 58.0552 115.799 57.9177 116.001 57.7582C116.083 57.694 116.159 57.6313 116.235 57.5613L118.704 55.488C119.185 55.1114 119.743 54.5998 120.248 54.1921L120.957 53.5937C122.275 52.4833 123.207 52.6933 124.709 52.7114C124.811 52.7126 124.85 52.7306 124.967 52.7294C125.082 52.7285 125.136 52.7417 125.225 52.7466C125.311 52.7512 125.414 52.7468 125.501 52.7464C125.622 52.7458 125.673 52.7631 125.776 52.7643C126.522 52.7735 127.241 52.7808 128 52.7808C128.386 52.7808 128.715 52.798 129.103 52.798H132.463C132.491 52.8391 132.513 52.8778 132.542 52.9258C132.575 52.9815 132.595 53.0095 132.628 53.063C132.854 53.4289 133.151 53.8782 133.45 54.1851C133.619 54.3583 133.81 54.5969 133.997 54.7393L134.351 55.0216C134.573 55.1809 134.796 55.3087 135.042 55.4325C135.66 55.743 136.503 55.8346 137.229 55.7288C138.38 55.5612 139.725 54.8081 140.149 54.8081C140.536 54.8081 140.956 54.8985 141.246 55.0372C141.319 55.0725 141.374 55.0922 141.447 55.1287C141.666 55.2389 141.88 55.3923 142.147 55.3923C142.412 55.3923 142.703 54.875 142.751 54.6707L141.619 54.1151C141.424 54.0182 141.253 53.9224 141.062 53.8286C140.948 53.7724 140.587 53.601 140.459 53.5711C140.459 53.2001 140.396 52.7858 140.325 52.4329C140.19 51.7622 140.011 51.0809 139.706 50.473C139.48 50.0218 139.245 49.6897 138.94 49.3128C138.452 48.7097 137.696 48.2827 136.971 48.0453C136.322 47.8326 135.447 47.8119 134.765 47.963C134.214 48.0851 133.606 48.3317 133.199 48.7389C133.057 48.8816 132.926 49.0254 132.805 49.1874C132.648 49.3975 132.533 49.6446 132.406 49.8719C132.251 50.1473 132.131 50.4419 131.94 50.6959C131.861 50.8014 131.695 50.7423 131.584 50.7363C131.519 50.7327 131.443 50.7372 131.377 50.7369L130.774 50.7018C130.709 50.6983 130.633 50.7027 130.567 50.7027C130.467 50.7025 130.449 50.6869 130.361 50.6844C130.293 50.6823 130.222 50.6864 130.153 50.6855C130.057 50.6844 130.043 50.6682 129.948 50.6671C129.879 50.6662 129.808 50.6703 129.74 50.6682C129.652 50.6656 129.634 50.6501 129.534 50.6499C129.468 50.6498 129.392 50.6541 129.327 50.6505C128.954 50.6305 128.225 50.5795 127.897 50.5815C127.479 50.5842 127.07 50.5277 126.656 50.5302C126.239 50.5326 125.834 50.4763 125.415 50.4788C125.27 50.4797 125.163 50.4615 125.001 50.4615L127.222 48.5863C127.255 48.56 127.264 48.5546 127.298 48.5245C127.578 48.2761 127.876 48.0477 128.159 47.8024L129.531 46.645C129.641 46.5563 129.932 46.273 130.04 46.2414C130.424 46.1284 130.782 46.0833 131.205 46.0632C131.282 46.0595 131.349 46.0509 131.446 46.0461C131.505 46.0432 131.628 46.0337 131.7 46.0243C132.408 45.9314 132.69 45.9236 133.273 45.479C133.327 45.4376 133.364 45.4154 133.415 45.3635C133.472 45.3068 133.496 45.2841 133.559 45.2316C133.59 45.2053 133.592 45.1967 133.615 45.1677L133.811 44.9505C133.891 44.8595 133.964 44.7383 134.031 44.6376C134.07 44.5805 134.087 44.5359 134.125 44.4729C134.169 44.3984 134.177 44.3662 134.215 44.288C134.275 44.1632 134.318 44.0386 134.361 43.9008C134.646 42.981 134.445 41.9576 134.025 41.1211C133.889 40.8497 133.749 40.6278 133.583 40.3939L133.396 40.1506C133.369 40.1178 133.349 40.1029 133.322 40.0699C132.812 39.4387 132.042 38.8857 131.272 38.6092L130.832 38.4635C130.133 38.2611 129.309 38.2819 128.606 38.4558C128.268 38.5396 127.924 38.6803 127.634 38.8611C127.585 38.8917 127.562 38.9147 127.514 38.9473C127.469 38.9777 127.436 39.0015 127.394 39.0342C127.356 39.0649 127.316 39.0934 127.28 39.1266C126.657 39.702 126.346 40.4621 126.346 41.3731Z" fill="#08060A"/>
<path fill-rule="evenodd" clip-rule="evenodd" d="M74.3564 0.810966C74.5407 0.810966 74.8829 0.885244 75.078 0.916113C75.2087 0.936712 75.1982 0.922419 75.2631 1.02372C75.4121 1.25645 75.5444 1.5013 75.6339 1.77069C75.826 2.34956 75.956 3.01935 75.9762 3.66284L76.0797 5.22615C76.0894 5.40587 76.0796 5.59814 76.0993 5.77349C76.1092 5.86073 76.1122 5.92409 76.1134 6.03447C76.1146 6.13584 76.1323 6.17499 76.1311 6.29167C76.1281 6.58961 76.2277 7.55951 76.2509 7.85585L76.2691 8.11255C76.2743 8.2141 76.2821 8.2889 76.2865 8.37026C76.2959 8.54668 76.2866 8.74465 76.3061 8.91754C76.3158 9.00311 76.321 9.06783 76.3204 9.17822L76.4585 11.5488C76.457 12.0581 76.6733 13.5717 76.7674 14.0412C76.8529 14.4668 76.9526 14.8366 77.1233 15.2153C77.1775 15.3355 77.2422 15.4642 77.3255 15.5637C77.3668 15.6131 77.3716 15.589 77.3893 15.6548C77.521 15.6518 77.6883 15.5224 77.776 15.4561C77.9205 15.3468 78.132 15.1669 78.2409 15.0264C78.2857 14.9684 78.3331 14.9281 78.3844 14.8774L78.5219 14.7224C78.7693 14.4685 78.987 14.1879 79.206 13.9097L81.5124 10.8318C81.6014 10.7129 81.6793 10.5981 81.7662 10.4835L83.2703 8.42671C83.36 8.30742 83.4378 8.19846 83.5263 8.08074L84.8463 6.40727C84.8769 6.37302 84.8795 6.36403 84.9075 6.33096L85.1214 6.09739C85.2564 5.93643 85.4125 5.79184 85.5616 5.64289L85.889 5.36818C85.9529 5.322 86.0237 5.29632 86.0914 5.26064L86.1112 5.68764C86.1191 5.75932 86.1247 5.80091 86.1253 5.8969L86.1676 6.54196C86.2016 6.76603 86.2261 7.57105 86.2475 7.83675C86.2695 8.11146 86.2827 8.4273 86.3129 8.69924C86.3288 8.84284 86.3194 8.98 86.3352 9.12369L86.4357 10.3978C86.457 10.8259 86.5264 11.2521 86.5395 11.6689C86.544 11.8152 86.5678 11.9547 86.5741 12.0983C86.599 12.6785 86.7322 13.5478 86.7822 14.1586C86.8427 14.8971 87.1149 16.608 87.2944 17.3245C87.3538 17.5617 87.4099 17.8146 87.5102 18.037C87.6764 18.4056 87.6193 18.3499 87.9822 18.2957C88.3326 18.2433 88.3528 18.0474 88.6073 17.8538C88.7708 17.7294 89.1292 17.2677 89.2661 17.1018L89.8775 16.3026C90.0853 16.0272 90.289 15.7624 90.4857 15.4831L94.2348 10.4074C94.5896 9.93434 94.9583 9.46965 95.3397 9.01778C95.5555 8.76216 95.7537 8.49435 95.9873 8.25464L96.4093 7.79931C96.448 7.75758 96.4541 7.73797 96.495 7.69565C96.5578 7.63044 96.6123 7.57972 96.6761 7.51534C96.8895 7.30021 97.2054 7.02719 97.4642 6.89247C97.5763 6.83409 98.4405 6.53196 98.5329 6.53196C98.6211 6.53196 99.3209 6.73288 99.467 6.76906C99.5679 6.79406 99.6843 6.84124 99.791 6.84124C99.7956 6.63249 99.9241 6.44841 99.9288 6.23993C99.2924 6.09217 98.6468 5.90162 98.0127 5.74511C97.7882 5.68975 97.5926 5.63608 97.3681 5.58019C97.1496 5.5257 96.9461 5.4705 96.7373 5.41876L95.1362 5.00497C95.0507 4.97965 94.8761 4.94825 94.8109 4.91706C94.7812 5.04436 94.6656 5.41757 94.6558 5.53552C94.838 5.55066 95.2151 5.67663 95.4141 5.72442C95.582 5.76472 95.6776 5.86199 95.8052 5.97018C95.84 5.99962 95.8481 6.01394 95.8865 6.04371C95.9322 6.07906 95.939 6.0842 95.9785 6.12382C96.0486 6.19375 96.2411 6.39375 96.2411 6.49763C96.2411 6.94122 95.1217 8.39735 94.7626 8.92345C94.4805 9.33673 93.5956 10.5069 93.2984 10.8654L92.8712 11.4187C92.7986 11.515 92.7295 11.5944 92.6593 11.6884L90.6309 14.3049C90.3849 14.6301 90.1465 14.9654 89.8694 15.2636L89.6283 15.5216C89.4657 15.6837 89.3 15.8319 89.1145 15.9714C88.7859 16.2182 88.8039 16.2314 88.7974 15.9635L88.7461 15.2758C88.7331 15.116 88.7431 14.9562 88.7254 14.7982C88.6931 14.5102 88.6937 14.1707 88.6616 13.8826L88.6071 12.9748C88.6074 12.8459 88.5885 12.6442 88.5753 12.5254L88.5212 11.6002C88.5078 11.3326 88.4529 10.951 88.4523 10.6896L88.2503 8.21074C88.241 8.1382 88.232 8.05239 88.2287 7.99181C88.2042 7.55092 88.151 7.08526 88.0953 6.6474L87.9922 5.77096C87.9035 5.10182 87.8252 4.32886 87.6231 3.69925C87.5074 3.33907 87.5415 3.37086 87.2632 3.37086C86.8942 3.37086 86.6229 3.50761 86.4063 3.66753C86.1853 3.83093 86.0282 4.05633 85.8625 4.27645C85.6641 4.53996 85.3077 5.06471 85.1385 5.27269L81.0918 10.4812C81.0072 10.5942 80.9193 10.6983 80.8356 10.8099C80.2598 11.5781 79.6467 12.3186 79.0682 13.0853C78.9933 13.1845 78.9026 13.3372 78.8023 13.4041C78.6174 13.1289 78.437 12.374 78.3642 12.0026C78.2618 11.4801 78.1414 10.9829 78.0539 10.4564C77.9654 9.92399 77.8704 9.38293 77.8059 8.84825C77.7385 8.2895 77.6578 7.73899 77.6145 7.18351C77.5921 6.89595 77.5684 6.60549 77.5452 6.32491L77.5098 5.43248C77.5099 5.12251 77.474 4.83266 77.5071 4.53656C77.5232 4.39421 77.4986 4.22081 77.5107 4.07609C77.5336 3.79937 77.5495 3.50724 77.5905 3.228C77.6632 2.7338 77.7586 2.21661 78.0146 1.79534C78.0724 1.70036 78.1456 1.61387 78.2278 1.54403C78.4135 1.38628 78.4339 1.43346 78.7455 1.48579C78.8011 1.49514 78.8857 1.51532 78.9572 1.51532C78.9572 1.32266 79.0261 1.15749 79.0261 0.948414C78.8281 0.943962 78.5705 0.877413 78.3836 0.850224L76.4585 0.55332C75.813 0.445042 75.1717 0.364107 74.5351 0.251705C74.3902 0.226118 74.4264 0.290058 74.3979 0.474586C74.3799 0.592363 74.3564 0.69132 74.3564 0.810966Z" fill="#08060A"/>
<path fill-rule="evenodd" clip-rule="evenodd" d="M0.809937 40.119C0.809937 39.9099 0.82664 39.6553 0.854061 39.4585C1.00304 38.3888 1.37404 37.5384 2.05283 36.6851C2.21494 36.4814 2.38634 36.3054 2.57186 36.1203L2.76166 35.9486C3.03762 35.6808 3.47269 35.3989 3.81558 35.1955C4.92581 34.5367 6.35707 34.3116 7.70375 34.5001C8.25815 34.5776 8.68518 34.6948 9.1956 34.8681L9.85658 35.1369C10.2677 35.3408 10.3185 35.3454 10.7602 35.6103C11.6964 36.1716 12.1138 36.5537 12.8163 37.2542C13.2039 37.6405 13.7684 38.379 13.9982 38.8418C14.2089 39.2659 14.2571 39.3585 14.4125 39.8204C14.7276 40.7568 14.7874 42.0227 14.4942 43.0073C14.3521 43.4846 14.3531 43.4957 14.165 43.9161C13.8512 44.6172 13.4452 45.1744 12.9112 45.7068L12.134 46.358C12.0693 46.4059 11.9976 46.4529 11.928 46.4962C11.8486 46.5458 11.7824 46.5881 11.7004 46.6302L11.4651 46.7564C11.3805 46.7984 11.309 46.8392 11.223 46.8758C9.54847 47.5908 7.62941 47.4565 5.9697 46.7948C5.90429 46.7686 5.86257 46.7535 5.7971 46.7263C5.21543 46.4848 4.65294 46.1262 4.146 45.7782C3.91508 45.6197 3.57665 45.3335 3.35613 45.1398C3.27065 45.0648 3.2081 44.9801 3.11899 44.9123L2.48653 44.2371C2.46063 44.2065 2.46086 44.201 2.43362 44.1697C2.35663 44.0817 2.29908 44.0056 2.22786 43.9109C2.15605 43.8155 2.08927 43.7344 2.02294 43.6341C1.71491 43.1686 1.37782 42.6468 1.19529 42.1057C1.05922 41.7026 0.9577 41.4203 0.888508 40.9855C0.876867 40.9125 0.870942 40.8601 0.858973 40.7916L0.809937 40.119ZM0 41.0467V41.083C0.00119091 41.8407 0.0400742 42.3022 0.211059 43.0352C0.270068 43.2877 0.390648 43.6543 0.499289 43.8991C0.785792 44.5452 0.981845 44.9596 1.43522 45.5601C1.60005 45.7784 1.76639 45.9975 1.9513 46.1968C2.20997 46.4754 2.38965 46.6466 2.66644 46.8924L3.05543 47.2091C3.3806 47.4739 4.15425 47.9483 4.52206 48.1006L5.1842 48.3682C5.41006 48.4525 5.66703 48.5236 5.91405 48.5854C7.10993 48.8847 8.21477 48.8449 9.39832 48.5785C9.78391 48.4918 10.3499 48.2795 10.7015 48.1082C10.7653 48.0771 10.8015 48.0493 10.8675 48.016C11.5565 47.6673 11.7853 47.4597 12.3726 47.0083C12.4653 46.9372 12.5549 46.8376 12.6458 46.7652C12.7654 46.6699 13.1525 46.2726 13.2729 46.1363L13.8324 45.4399C14.0672 45.1283 14.5452 44.3571 14.6892 44.0092C14.7183 43.939 14.7417 43.9024 14.7703 43.8324C14.7942 43.7738 14.8167 43.7349 14.8443 43.6656C14.8717 43.5968 14.8908 43.5492 14.918 43.4814C14.9707 43.3503 15.0146 43.238 15.0587 43.1062L15.2883 42.3216C15.6243 40.9946 15.588 39.3412 15.11 38.0598C14.8729 37.4242 14.554 36.8245 14.1574 36.2779C13.8738 35.8868 13.6517 35.6302 13.3161 35.2956C13.2369 35.2167 13.1769 35.1475 13.0865 35.0779C13.0025 35.0133 12.9242 34.9268 12.8405 34.8593C12.4234 34.5233 11.966 34.1861 11.4821 33.9457C11.3729 33.8915 11.296 33.836 11.1763 33.7867C11.066 33.7412 10.9745 33.6978 10.8678 33.6477C10.1904 33.3294 8.99728 33.0751 8.23695 33.0751C7.46744 33.0751 6.84799 33.1065 6.10614 33.3215C5.56264 33.4791 5.14109 33.639 4.67557 33.8711C3.9643 34.2257 3.61176 34.4872 3.04006 34.9378L2.89915 35.0549C2.80629 35.1416 2.73186 35.2049 2.64105 35.2959L2.38197 35.5357C2.33344 35.5847 2.31918 35.6164 2.27065 35.6654L2.03764 35.914C1.74513 36.2073 1.32626 36.8381 1.10609 37.2016C0.91441 37.5182 0.833726 37.7056 0.683523 38.0173C0.392524 38.6211 0.170211 39.4641 0.0741047 40.1241C0.0328397 40.4074 0.00101227 40.7193 0 41.0319V41.0467Z" fill="#08060A"/>
<path fill-rule="evenodd" clip-rule="evenodd" d="M40.9434 4.05775C41.0449 4.08132 41.1253 4.12144 41.2325 4.14753C42.0616 4.34854 42.075 3.72971 42.4794 4.9316C42.5292 5.07992 42.5688 5.23431 42.6216 5.39111C42.8476 6.06313 43.0881 7.05394 43.2982 7.77463C43.6676 9.04123 43.9917 10.3262 44.3614 11.5939L44.8933 13.5031C45.1502 14.4133 45.4112 15.4669 45.7102 16.3481C45.762 16.5008 45.8077 16.6518 45.8477 16.8123C45.8995 17.0194 45.9231 17.1097 45.9053 17.337C45.8774 17.6914 45.3333 18.072 45.0486 18.3042C44.9932 18.3494 44.7351 18.5259 44.7172 18.5923C45.5575 18.5923 46.0087 18.4731 46.8022 18.2659C47.6341 18.0483 48.2846 17.7947 49.2148 17.5786L49.1408 17.5322C48.4989 17.2071 47.6401 17.4408 47.248 16.3612C47.1561 16.1081 47.0953 15.6945 47.0953 15.3624C47.0953 14.2767 48.0226 13.4898 48.043 13.4898C48.2006 13.4898 48.5411 13.6011 48.6734 13.6516C49.4154 13.9345 50.0322 14.4176 50.7065 14.8201C50.8817 14.9246 51.0417 15.0207 51.2128 15.1228C51.3772 15.221 51.538 15.3201 51.6996 15.4277C52.3882 15.8856 52.0064 15.7996 52.0064 16.3932C52.0064 16.5238 52.0409 16.5884 52.0409 16.7024C52.1979 16.6895 52.3724 16.6242 52.5268 16.5857C52.6915 16.5446 52.8537 16.5042 53.0093 16.4654C53.3404 16.3829 53.661 16.3029 53.9881 16.2214C54.3106 16.1411 54.634 16.0603 54.9567 15.9845C55.2881 15.9067 55.6078 15.8165 55.9353 15.7403C55.8836 15.67 55.0934 15.2654 54.9351 15.1742C54.8961 15.1518 54.8654 15.1402 54.8225 15.1146L53.7006 14.4979C53.6197 14.453 53.5592 14.4183 53.4767 14.3775C53.4273 14.3532 53.406 14.3377 53.367 14.3151L52.7992 14.0051C52.7215 13.9651 52.6538 13.9258 52.5749 13.8851L51.7879 13.4499C51.7455 13.4262 51.7159 13.4158 51.6735 13.3922C51.1791 13.1167 50.5616 12.7973 50.0944 12.5269L48.9738 11.9089C48.8974 11.8695 48.8188 11.809 48.7323 11.789C48.7438 11.6525 48.9752 11.0615 49.0358 10.8889C49.29 10.1641 49.5899 9.44593 49.9327 8.75937C50.0664 8.49173 50.2206 8.2362 50.3766 7.9821C50.8215 7.25787 51.3451 6.79672 52.0847 6.36931C52.2157 6.29359 52.4262 6.27617 52.5753 6.23984C52.6478 6.22215 52.7506 6.18993 52.8335 6.18815C52.8275 6.11671 52.7913 5.98395 52.7716 5.9063C52.7502 5.82201 52.7149 5.70851 52.7129 5.62115C52.5259 5.66458 52.3449 5.71002 52.1542 5.75134C51.9506 5.7955 51.7802 5.84109 51.5798 5.88315C51.4038 5.9201 51.1988 5.97067 51.0206 6.01273L48.7568 6.53902C48.6593 6.56022 48.5734 6.5799 48.4771 6.60379C48.3974 6.6235 48.2726 6.66151 48.1808 6.66917C48.1808 6.83693 48.2622 7.06789 48.3015 7.2361C48.3848 7.1962 48.9371 7.08085 49.0818 7.05055C49.1577 7.03458 49.1415 7.04055 49.2002 7.04408C49.4551 7.05904 49.9213 7.12141 49.9213 7.44229C49.9213 7.50272 49.7713 7.78389 49.739 7.86181C49.6782 8.00888 49.6097 8.12884 49.5495 8.27413C49.489 8.42013 49.4238 8.54405 49.3583 8.6848C49.3381 8.72832 49.3328 8.75044 49.3126 8.79386L48.5885 10.357C48.5515 10.4333 48.5258 10.498 48.4908 10.5688C48.4562 10.6388 48.431 10.7059 48.3933 10.7808L48.2037 11.1931C47.9978 11.6011 47.8334 12.0335 47.6297 12.4419C47.5964 12.5086 47.5733 12.5718 47.5377 12.6424L46.9577 13.9023C46.9404 13.9371 46.9217 13.9703 46.9061 14.0055C46.8989 14.0218 46.8934 14.0393 46.8864 14.0546L46.854 14.1083L46.6408 13.3759C46.4036 12.6499 46.2207 11.9136 45.9945 11.1855L45.5616 9.72728C45.3575 8.99293 45.1176 8.26239 44.9104 7.52459L44.4798 6.06415C44.4086 5.80936 44.3322 5.57827 44.2594 5.32164L43.7214 3.50439C43.6843 3.3721 43.6501 3.26122 43.6124 3.13207C43.5763 3.00857 43.5423 2.8933 43.5037 2.75926C43.484 2.69079 43.4694 2.64501 43.4483 2.5741C43.4336 2.5248 43.4072 2.42619 43.3904 2.39134C43.2763 2.41776 43.1529 2.49264 43.0456 2.54574C42.4555 2.8376 41.582 3.46552 41.0771 3.93338C41.0181 3.98818 40.9907 3.98741 40.9434 4.05775Z" fill="#08060A"/>
<path fill-rule="evenodd" clip-rule="evenodd" d="M118.608 39.982C117.687 39.982 117.01 39.4877 116.511 38.8771C116.348 38.6765 116.221 38.4512 116.104 38.2182C115.921 37.8542 115.788 37.405 115.736 36.9879C115.714 36.8174 115.72 36.6673 115.707 36.4854C115.662 35.8417 115.952 34.9638 116.283 34.4163C116.314 34.3646 116.347 34.314 116.382 34.2576C116.421 34.1947 116.454 34.1572 116.496 34.096C116.599 33.9454 116.791 33.7281 116.915 33.5869C116.939 33.5601 116.958 33.5437 116.984 33.5179C117.211 33.2924 117.453 33.1061 117.708 32.9162L118.198 32.5977C119.079 32.066 120.461 31.5809 121.452 31.5809C122.24 31.5809 122.894 31.7764 123.52 32.1469L123.746 32.2999C124.358 32.7768 124.795 33.4614 124.795 34.261C124.795 34.6938 124.735 35.2888 124.502 35.6356L124.11 36.1383C123.936 36.3184 123.751 36.5267 123.567 36.6965C123.525 36.7351 123.506 36.7411 123.463 36.7818C123.399 36.8433 123.348 36.9052 123.282 36.9625L123.084 37.1422C123.042 37.1769 123.03 37.1795 122.989 37.22C122.946 37.2631 122.94 37.2703 122.889 37.3091L122.294 37.8149C121.883 38.1465 121.512 38.4637 121.08 38.7867C120.859 38.9514 120.228 39.4224 120.016 39.5472C119.928 39.599 119.869 39.6373 119.774 39.6843C119.453 39.8435 119.079 39.982 118.608 39.982ZM114.524 35.5323C114.524 35.9601 114.553 36.4005 114.653 36.7961C114.756 37.2052 114.913 37.5851 115.116 37.9492C115.156 38.0214 115.175 38.0568 115.217 38.1233L115.62 38.6837C115.786 38.8961 115.963 39.051 116.157 39.2304C116.191 39.2615 116.196 39.2682 116.23 39.2948C116.818 39.7449 116.94 39.8222 117.574 40.1369C117.746 40.2219 118.423 40.4835 118.591 40.4975C118.445 40.7151 118.195 40.8589 118.195 41.3049C118.195 41.5625 118.313 41.7978 118.415 41.9614C118.587 42.2372 118.814 42.4384 119.062 42.6397C119.245 42.7887 119.712 43.0903 119.935 43.1089C119.891 42.9189 119.34 42.4077 119.935 41.5797C120.338 41.0204 121.116 40.6428 121.676 40.2399C121.939 40.0505 122.188 39.8316 122.444 39.6309C122.703 39.4276 122.942 39.2335 123.202 39.0297L127.393 35.7002C128.274 34.9811 129.179 34.284 130.07 33.5761C130.197 33.4751 130.316 33.3813 130.443 33.2778C130.51 33.2232 130.568 33.1775 130.634 33.1249C130.78 33.0088 131.51 32.4641 131.584 32.354C131.526 32.3149 131.511 32.307 131.459 32.2551C131.411 32.2073 131.38 32.191 131.33 32.1436C131.172 31.9934 130.989 31.8647 130.83 31.714L130.451 31.3875C130.402 31.3409 130.372 31.3255 130.322 31.2759L130.063 31.0525C130.017 31.0061 129.99 30.9943 129.943 30.9495C129.826 30.8387 129.685 30.7084 129.551 30.6189C129.465 30.7978 129.534 31.1262 129.534 31.3231L129.514 31.8365C129.483 32.1289 129.323 32.3638 129.14 32.5112C128.555 32.9809 127.942 33.4111 127.345 33.866L125.654 35.1869C125.609 35.2239 125.631 35.2241 125.57 35.2403C125.564 35.1639 125.523 35.0489 125.503 34.9805C125.26 34.1497 125.056 33.298 124.611 32.5547C123.877 31.3314 122.639 30.4881 121.183 30.2851C120.765 30.2268 120.363 30.232 119.935 30.258C119.565 30.2805 119.142 30.3822 118.826 30.4751C118.099 30.6894 117.43 31.0305 116.823 31.4678L116.26 31.9198C116.145 32.0298 116.046 32.1344 115.933 32.2467C115.765 32.414 115.628 32.6051 115.477 32.7886C115.295 33.0103 114.987 33.5828 114.876 33.8731L114.638 34.632C114.564 34.9217 114.524 35.2163 114.524 35.5323Z" fill="#08060A"/>
<path fill-rule="evenodd" clip-rule="evenodd" d="M108.131 72.9508C108.131 73.4206 108.16 73.8553 108.301 74.276C108.494 74.85 108.864 75.49 109.375 75.8338C109.686 76.0432 110.005 76.2203 110.394 76.279C110.568 76.3055 110.751 76.3111 110.923 76.3014C111.195 76.2864 111.399 76.2353 111.634 76.134C111.705 76.1037 111.775 76.0775 111.835 76.0425C112.195 75.8329 112.542 75.5816 112.804 75.2555C112.863 75.1823 113.038 74.9892 113.06 74.9094C112.95 74.9094 112.916 74.8922 112.801 74.8922C111.768 74.8922 110.996 75.1769 109.965 74.9198C109.88 74.8988 109.799 74.8647 109.717 74.8578C109.708 74.7498 109.663 74.6553 109.638 74.5414C109.612 74.4233 109.593 74.3309 109.574 74.2101C109.394 73.1174 109.582 71.9399 110.07 70.9667C110.295 70.5173 110.535 70.2102 110.849 69.8361C111.07 69.5733 111.335 69.3361 111.622 69.147C111.687 69.1045 111.733 69.0669 111.796 69.028C112.931 68.3285 114.416 68.1029 115.672 68.6286C116.086 68.8022 116.372 69.0303 116.683 69.3384C116.727 69.3823 116.739 69.403 116.778 69.45C116.813 69.4925 116.844 69.529 116.878 69.5734C117.356 70.205 117.574 71.1038 117.574 71.9028C117.574 72.7005 117.491 73.2336 117.326 73.9576C117.185 74.5776 116.865 75.5041 116.581 76.0662L115.88 77.3951C115.629 77.8137 115.369 78.2307 115.078 78.6229L114.091 79.8721C114.053 79.9185 114.033 79.9384 113.995 79.9827L113.806 80.1888C113.619 80.4118 113.416 80.6123 113.202 80.8235L112.797 81.2274C112.561 81.4629 112.3 81.671 112.056 81.8974L110.581 83.0724C109.972 83.5578 109.326 83.9915 108.679 84.4238C108.515 84.5336 108.347 84.6227 108.173 84.7268C108.077 84.7845 108.006 84.8247 107.907 84.8739C107.445 85.1042 106.983 85.344 106.483 85.4988C105.705 85.7397 104.755 85.866 103.942 85.6149C103.726 85.5483 103.234 85.3239 103.22 85.3206C103.234 85.4901 103.387 85.7424 103.465 85.8671C103.499 85.9229 103.5 85.9275 103.542 85.979C103.582 86.0286 103.592 86.0442 103.638 86.0896C103.849 86.2978 104.064 86.457 104.359 86.5557C105.113 86.8074 106.124 86.6341 106.82 86.4008C108.079 85.9784 109.181 85.3675 110.285 84.6334C110.963 84.183 111.656 83.6733 112.263 83.1347C112.49 82.9335 112.737 82.75 112.952 82.533C113.001 82.483 113.019 82.4729 113.072 82.4292C113.266 82.267 113.665 81.8566 113.848 81.6741C113.989 81.5332 114.162 81.3883 114.286 81.2343L115.003 80.4374C115.312 80.0918 115.598 79.7232 115.888 79.3615L116.252 78.8656C116.76 78.1893 117.185 77.45 117.586 76.7076C117.637 76.6129 117.692 76.507 117.735 76.4089C117.911 75.9957 118.108 75.6131 118.249 75.1865L118.459 74.5373C118.526 74.3059 118.584 74.0823 118.633 73.8342C118.889 72.5418 118.857 71.19 118.367 69.9615C118.338 69.8877 118.312 69.8172 118.275 69.7437L117.95 69.1572L117.621 68.7124C117.592 68.6777 117.577 68.6697 117.547 68.6312C117.437 68.4896 117.305 68.3681 117.174 68.2475C116.042 67.2037 114.349 66.9024 112.847 67.3094C112.749 67.3358 112.663 67.3736 112.573 67.3979C112.466 67.4272 112.395 67.4603 112.296 67.4998C112.033 67.6047 111.802 67.7248 111.555 67.8595L111.098 68.1434C110.776 68.3527 110.368 68.7217 110.091 68.9949L109.569 69.5736C109.508 69.6504 109.458 69.7035 109.399 69.7821C109.131 70.137 108.883 70.5078 108.683 70.9064C108.378 71.5147 108.131 72.2319 108.131 72.9508Z" fill="#08060A"/>
<path fill-rule="evenodd" clip-rule="evenodd" d="M24.6074 87.7773C25.2461 87.7773 25.6823 87.6251 25.9516 87.0903C26.0029 86.9883 26.0953 86.7448 26.1066 86.6091C25.9299 86.6502 25.5651 87.0195 24.5431 86.8279C24.247 86.7724 23.9469 86.6763 23.6764 86.558C23.6067 86.5276 23.5529 86.5036 23.4876 86.4715C22.8397 86.1523 22.325 85.8166 21.7692 85.3498L21.6141 85.2124C21.3064 84.9544 21.0342 84.6566 20.7514 84.3718L20.4845 84.0709C20.3919 83.9672 20.3184 83.865 20.2259 83.7616C19.9833 83.4901 19.577 82.9177 19.3825 82.6097C18.1894 80.7207 17.4044 78.6108 17.4044 76.3353C17.4044 74.9032 17.7175 73.5349 18.3352 72.281C18.3568 72.237 18.3739 72.1848 18.4003 72.1397C18.4518 72.052 18.4888 71.9743 18.536 71.8799C18.7988 71.3542 19.1379 70.8903 19.4967 70.4325C19.6127 70.2845 19.7487 70.1583 19.8814 70.0258C20.6015 69.3079 21.5686 68.7588 22.643 68.7588C23.1783 68.7588 23.6597 68.8507 24.1251 69.0334C24.4946 69.1786 24.822 69.3895 25.1417 69.6176C25.1746 69.641 25.176 69.6463 25.2067 69.6731C25.5924 70.0103 25.8856 70.2904 26.1721 70.7208C26.3277 70.9544 26.4314 71.1617 26.5547 71.4045C26.9154 72.1153 27.0345 73.1209 26.8778 73.8916C26.7554 74.4932 26.5327 75.2262 25.9826 75.5245C25.5851 75.74 25.2381 75.6636 24.918 75.6649C24.7793 75.6655 24.6282 75.6783 24.4941 75.658C24.162 75.6079 23.6874 75.6813 23.3815 75.7831C23.275 75.8185 23.1832 75.8804 23.0738 75.9058C23.1667 76.0808 23.2887 76.2264 23.4132 76.3747L23.6692 76.6177C23.9434 76.8229 24.1926 76.9416 24.6021 77.0106C25.0107 77.0794 25.3993 76.9869 25.7298 76.8874C25.8126 76.8625 25.8831 76.8286 25.9629 76.7933L26.1813 76.6845C26.5011 76.5143 26.6878 76.3524 26.9467 76.1249C27.0157 76.0645 27.0555 76.0454 27.1161 75.9673C27.1497 75.9237 27.1502 75.9223 27.188 75.8844L27.5469 75.4176L27.7896 74.9895C28.1609 74.2493 28.3205 73.2061 28.1272 72.242C28.0918 72.066 28.0457 71.8867 27.9916 71.7243C27.9357 71.5568 27.8854 71.4002 27.8176 71.2449C27.5446 70.6203 27.1859 70.044 26.7495 69.5266C26.5502 69.2902 26.3464 69.04 26.104 68.8472L25.8384 68.6139C25.7715 68.5618 25.7216 68.5181 25.6563 68.469C24.3279 67.4715 22.6998 67.246 21.107 67.8974C20.5007 68.1455 19.9606 68.477 19.4669 68.8909L18.8216 69.4845L17.9594 70.5663C17.9175 70.6287 17.8869 70.6612 17.8469 70.729C17.4944 71.3241 17.1516 71.91 16.8924 72.5605C16.681 73.0905 16.4947 73.6498 16.372 74.258C16.311 74.5612 16.2486 74.8742 16.2169 75.203L16.1762 75.7121C16.1496 75.9079 16.1553 76.5231 16.1632 76.7826L16.2028 77.2926C16.2634 77.7727 16.3267 78.2549 16.4427 78.7201C16.5496 79.1489 16.6857 79.5939 16.8248 80.0056C16.9193 80.2847 17.0284 80.5287 17.1385 80.7923C17.2738 81.1161 17.4389 81.4177 17.5941 81.7298C17.8213 82.187 18.2484 82.8838 18.5441 83.2737L18.8962 83.7474C19.073 83.9831 19.2585 84.2246 19.4593 84.44C19.4905 84.4735 19.4972 84.4783 19.5239 84.5131L19.7867 84.8009C19.8842 84.8976 19.9553 84.9861 20.0538 85.0844L20.9911 85.9538C21.3798 86.2668 21.7565 86.5776 22.1876 86.8397C22.4206 86.9812 22.6492 87.1281 22.8956 87.2505C23.3823 87.4924 24.0304 87.7773 24.6074 87.7773Z" fill="#08060A"/>
<path fill-rule="evenodd" clip-rule="evenodd" d="M107.218 29.502C107.202 29.4357 107.169 29.382 107.135 29.327L106.965 28.9809C106.695 28.4056 106.67 27.9469 107.028 27.406C107.213 27.1274 107.742 26.5572 107.989 26.3019L108.359 25.8982C108.664 25.5947 109.022 25.1095 109.299 24.7735C109.457 24.5817 109.59 24.3832 109.755 24.1977C109.797 24.1517 109.836 24.1049 109.874 24.0583C110.008 23.8933 110.166 23.7559 110.307 23.5961L110.785 23.1627C111.093 22.9286 111.395 22.735 111.76 22.5882C112.446 22.312 113.221 22.4019 113.875 22.7273C114.258 22.9173 114.632 23.1737 114.933 23.4764L115.192 23.7336C115.363 23.9023 115.52 24.1152 115.627 24.3307C115.939 24.9589 115.983 25.5197 115.723 26.1962C115.674 26.3258 115.621 26.4376 115.559 26.5481C115.26 27.0845 114.869 27.5693 114.434 28.0031L112.908 29.5748C112.858 29.6255 112.84 29.6599 112.788 29.7124L112.432 30.1302C112.206 30.4203 111.972 30.7057 111.764 31.0105C111.692 31.1154 111.618 31.2085 111.543 31.3058C111.165 31.797 111.12 31.8235 110.523 31.6705L109.713 31.447C109.637 31.4264 109.58 31.4113 109.51 31.3919C109.446 31.3739 109.375 31.3463 109.303 31.3403C109.346 31.4041 109.887 31.8533 109.958 31.9073C110.304 32.1723 110.935 32.7746 111.292 33.0511L112.183 33.8118C112.258 33.8721 112.33 33.9461 112.405 34.0032C112.479 34.0605 112.551 34.1346 112.626 34.1948L112.853 34.3813C112.837 34.3126 112.773 34.2042 112.738 34.135C112.403 33.4679 112.308 32.8002 112.692 32.1596C112.792 31.9942 112.881 31.8798 112.99 31.7352C113.021 31.6941 113.037 31.6835 113.073 31.6454L114.046 30.6231C114.277 30.3934 114.659 30.0459 114.849 29.8088C115.01 29.6075 115.312 29.3683 115.472 29.1585L116.235 28.3038C116.552 27.9717 116.95 27.4438 117.119 27.0207C117.352 26.436 117.428 25.9692 117.311 25.3318C117.176 24.5893 116.704 23.9286 116.157 23.4243C115.871 23.1602 115.542 22.9381 115.206 22.7402C114.252 22.1776 113.165 21.9256 112.026 21.9256C112.057 21.8665 112.088 21.8132 112.124 21.7483C112.158 21.6868 112.186 21.6333 112.223 21.572C112.284 21.4689 112.797 20.5718 112.818 20.4825C112.714 20.4275 112.636 20.3618 112.539 20.2967C112.442 20.2309 112.36 20.1718 112.264 20.1079C112.166 20.0432 112.086 19.9848 111.988 19.9191L110.613 18.9705C110.659 19.1417 110.839 19.2049 110.837 19.692C110.833 20.5345 110.222 21.4687 109.724 22.1221L109.414 22.5171C109.338 22.6128 109.274 22.6909 109.196 22.7808C109.157 22.8256 109.133 22.8556 109.092 22.9008C108.903 23.1124 108.73 23.341 108.532 23.5452C108.449 23.6311 108.384 23.7096 108.299 23.7939L107.842 24.2835C107.703 24.4414 107.522 24.6036 107.368 24.7557L106.662 25.4772C106.445 25.7019 106.197 26.0327 105.947 26.19C105.538 26.4467 104.908 26.6028 104.423 26.5329C104.206 26.5017 104.032 26.4629 103.845 26.3876C103.781 26.3616 103.736 26.3396 103.668 26.3238C103.708 26.3823 103.724 26.3776 103.776 26.4227C103.816 26.4576 103.839 26.4903 103.88 26.5248C103.929 26.5656 103.945 26.5725 103.991 26.6199L104.319 26.9118C104.563 27.1537 104.987 27.4871 105.206 27.7111C105.253 27.7585 105.269 27.7655 105.317 27.8063C105.364 27.845 105.382 27.8752 105.433 27.9142C105.63 28.0659 105.799 28.2488 105.989 28.4076L107.093 29.4035C107.143 29.4547 107.161 29.4644 107.218 29.502Z" fill="#08060A"/>
<path fill-rule="evenodd" clip-rule="evenodd" d="M60.0366 14.8817C59.6253 14.8817 59.0942 14.7492 58.7786 14.5896C58.6078 14.5033 58.0905 14.2691 58.0139 14.1151C57.6404 13.3653 57.3502 12.3574 57.7501 11.5542C57.9896 11.0733 58.3628 10.8027 58.8031 10.5422C59.3953 10.1918 60.492 9.93469 61.1664 9.82323C61.5536 9.75927 62.1326 9.67364 62.5337 9.64013L63.0004 9.59008C63.0004 10.3255 63.0126 10.4406 62.9316 11.1879L62.7826 11.9842C62.6872 12.3068 62.5797 12.7154 62.4263 13.0207C62.2143 13.4424 62.228 13.4526 61.8953 13.9C61.6276 14.2602 61.2341 14.5357 60.8236 14.7214C60.6607 14.7949 60.2656 14.8817 60.0366 14.8817ZM60.2778 5.31225C60.9035 5.31225 61.4891 5.49927 61.8931 5.90077L61.9735 5.97533C61.9838 5.98552 61.9887 5.99148 61.9983 6.00207C62.6936 6.7599 62.8453 7.87553 62.8453 9.07475C62.1355 9.23957 61.412 9.37941 60.6785 9.52562C60.2044 9.62021 59.0522 9.88075 58.5818 10.0639L58.1065 10.2429C57.83 10.3524 57.4891 10.527 57.2449 10.6897L56.87 10.9686C56.2541 11.5376 56.0215 12.0551 56.0215 12.923C56.0215 13.2715 56.1416 13.8842 56.3177 14.1739C56.4746 14.4321 56.5442 14.5382 56.7664 14.7574C56.8768 14.8663 57.1325 15.048 57.2694 15.1321C57.5613 15.3112 57.9156 15.4399 58.258 15.5209C59.0992 15.7198 59.9746 15.5708 60.7504 15.2497C60.8134 15.2236 60.8348 15.2142 60.8924 15.1851C60.9905 15.1359 61.0719 15.0997 61.1642 15.0438L61.6634 14.7168C61.7428 14.6622 61.8092 14.5999 61.8828 14.5404C62.0306 14.4211 62.1838 14.2791 62.307 14.1386C62.3772 14.0588 62.438 14.0161 62.5081 13.9269C62.8148 13.5354 62.8165 13.5541 63.121 13.0947L63.2072 12.9746C63.2151 13.0693 63.3395 13.5033 63.3723 13.6176C63.5003 14.0617 63.584 14.4032 63.9007 14.7229C64.2847 15.1104 64.8784 14.964 65.3291 14.8153C65.4028 14.7909 65.4736 14.7506 65.5509 14.7442C65.5485 14.6351 65.4936 14.6254 65.3784 14.4523C65.2331 14.2342 65.1561 14.0781 65.0559 13.846C65.006 13.7308 64.9666 13.6159 64.9282 13.4922C64.8606 13.2744 64.8089 12.9478 64.7784 12.6966C64.7445 12.4163 64.7116 12.1197 64.6904 11.8396C64.579 10.3769 64.5427 8.16237 64.127 6.76621C64.0037 6.35257 63.7788 5.81917 63.4787 5.52269C62.9321 4.98251 62.3281 4.74097 61.5654 4.61266C60.829 4.4888 60.0016 4.53089 59.2922 4.70755C58.5685 4.88787 57.7018 5.23561 57.189 5.75464L56.8039 6.16101C56.7626 6.21535 56.74 6.2586 56.6983 6.31345C56.6505 6.37656 56.6401 6.40282 56.6016 6.47474C56.4405 6.77613 56.2987 7.08618 56.2802 7.47723C56.2544 8.0253 56.3117 8.32366 56.4799 8.80661C56.5267 8.94089 56.6236 9.01568 56.7573 9.06261C56.9052 9.11452 57.044 9.11497 57.1786 9.05995C57.5524 8.90738 57.4811 8.19668 57.5232 7.82296C57.5582 7.51157 57.538 7.14718 57.5772 6.82878C57.652 6.22269 57.8272 6.11212 58.3766 5.80468C58.4425 5.76785 58.4973 5.75337 58.5662 5.71879C58.974 5.51366 59.6716 5.31225 60.2778 5.31225Z" fill="#08060A"/>
<path fill-rule="evenodd" clip-rule="evenodd" d="M105.891 17.802C105.891 18.324 105.787 18.6566 105.601 19.1102C105.529 19.284 105.431 19.4526 105.339 19.6052C105.093 20.0112 105.118 19.984 104.823 19.984C104.358 19.984 103.639 19.7615 103.232 19.543C102.637 19.2241 102.504 19.1297 101.946 18.7977L100.393 17.82C100.17 17.692 99.5811 17.3936 99.3429 17.3382C99.3535 17.211 99.6262 16.7687 99.7185 16.6303L100.114 16.1315C100.154 16.0885 100.157 16.0673 100.2 16.028C100.456 15.794 100.726 15.5648 101.043 15.4082C101.443 15.2107 101.679 15.1193 102.144 15.0452C102.259 15.027 102.359 15.0272 102.478 15.0175C102.605 15.0071 102.671 15.0199 102.824 15.0187C103.251 15.0155 103.721 15.1535 104.028 15.2787C104.365 15.4165 104.674 15.6098 104.938 15.8314C105.175 16.0299 105.455 16.3653 105.593 16.6392C105.754 16.9611 105.891 17.3299 105.891 17.802ZM96.5858 19.6919C96.5858 20.9595 96.9971 22.0042 97.8041 22.9612C97.9527 23.1373 98.0543 23.2245 98.2184 23.39C98.5116 23.6857 99.2081 24.1465 99.5844 24.3132C100.016 24.5042 100.084 24.5272 100.53 24.6764C101.292 24.9319 102.43 24.9793 103.222 24.7451C103.648 24.619 104.143 24.4568 103.892 23.9354L102.1 24.2107C101.574 24.2556 101.407 24.3023 100.849 24.2032C100.314 24.1078 99.9099 23.8774 99.4981 23.5573C98.9013 23.0936 98.2984 22.4011 98.1378 21.6149C98.1197 21.526 98.1005 21.4223 98.0894 21.3367C97.9906 20.5753 98.3044 19.5577 98.5649 18.8648L98.8152 18.1177C98.8401 18.0432 98.8888 17.9265 98.8948 17.8535C99.1612 17.9941 99.3628 18.024 99.8089 18.2823L101.498 19.2787C101.64 19.364 101.773 19.4539 101.911 19.5365C102.052 19.6202 102.187 19.712 102.325 19.7941C103.262 20.3537 104.938 21.4615 106.029 21.4615C106.032 21.4498 106.424 20.6443 106.552 20.2135C106.622 19.9779 106.682 19.7545 106.726 19.4931C106.749 19.3545 106.756 19.2431 106.777 19.0981C106.842 18.6518 106.779 18.002 106.684 17.6128C106.519 16.9401 106.322 16.5461 105.936 15.9878C105.819 15.8187 105.678 15.6567 105.533 15.5129C105.503 15.4827 105.486 15.4614 105.458 15.4329L105.378 15.3583C105.09 15.0773 104.717 14.7917 104.357 14.6065C104.293 14.5733 104.237 14.5378 104.168 14.5034C103.938 14.3888 103.768 14.3332 103.535 14.2406C103.457 14.2095 103.396 14.1977 103.313 14.1706C102.557 13.9243 101.37 13.8932 100.59 14.1491C100.182 14.2828 100.009 14.3368 99.6243 14.5434C99.299 14.718 99.0997 14.8732 98.8158 15.0948C98.6013 15.2622 98.3116 15.573 98.1313 15.7866C97.861 16.107 97.5055 16.6186 97.3093 16.9944C96.9021 17.7744 96.5858 18.654 96.5858 19.6919Z" fill="#08060A"/>
<path fill-rule="evenodd" clip-rule="evenodd" d="M71.0995 60.4949C71.1815 60.4731 71.4662 60.0713 71.5181 60.0016L72.1235 59.2308C72.1985 59.1348 72.2646 59.0718 72.3377 58.9805C72.5319 58.7377 73.0592 58.3387 73.3577 58.1591C73.7432 57.9272 74.2153 57.7117 74.643 57.5851C75.3417 57.3783 76.1212 57.3763 76.7101 57.839C76.8425 57.9431 76.9139 58.0201 77.0222 58.1462C77.8458 59.1049 77.7721 61.088 77.3872 62.2279C77.211 62.7491 77.054 63.1797 76.7484 63.6529C76.2064 64.4924 75.4868 65.1202 74.4725 65.2493C74.3689 65.2626 74.3128 65.2491 74.2185 65.271C74.2185 65.1413 74.1827 64.9632 74.1694 64.839C74.1194 64.3772 74.1688 64.0246 74.3514 63.5995L74.5749 63.1007C74.669 62.8836 74.77 62.3385 74.77 62.0755C74.093 62.0755 73.4694 62.2224 73.0637 62.7453C72.9445 62.8989 72.8664 63.0804 72.7933 63.2659C72.6924 63.5221 72.6374 63.817 72.5912 64.1296C72.393 65.4744 72.7702 65.7774 73.4062 66.6308C73.5217 66.786 73.5073 66.7646 73.7871 66.7835C74.4395 66.8275 74.9021 66.7989 75.5259 66.6089C76.1551 66.4172 76.7649 66.0566 77.2298 65.5932C77.2915 65.5317 77.3405 65.4828 77.4021 65.4213L77.5657 65.2408C77.6015 65.2027 77.617 65.1921 77.648 65.1511C78.1897 64.4366 78.48 63.9409 78.7785 63.0483C78.893 62.7058 78.991 62.3427 79.0561 61.9677C79.2793 60.6804 79.2344 59.1819 78.6874 58.0151C78.5435 57.708 78.4576 57.5393 78.2535 57.2624C78.2168 57.2125 78.1832 57.1732 78.1475 57.1274C78.1085 57.0771 78.0803 57.0534 78.0367 56.9973C77.9617 56.9007 77.7566 56.7233 77.6627 56.6487C76.7922 55.9572 75.7654 55.9138 74.7113 56.1757C74.4426 56.2424 74.0554 56.3746 73.8164 56.4861C73.5329 56.6182 73.4836 56.6353 73.2245 56.7894C72.832 57.0227 72.6894 57.1489 72.3424 57.4218L71.8112 57.9229C71.407 58.4049 70.9716 58.8961 70.8895 59.5639L70.8647 60.1277C70.8818 60.2499 70.8966 60.2592 71.0351 60.4044C71.0769 60.4482 71.0833 60.4346 71.0995 60.4949Z" fill="#08060A"/>
<path fill-rule="evenodd" clip-rule="evenodd" d="M55.9009 64.6696C57.2066 64.6696 58.5256 64.3416 59.5985 63.683C60.0495 63.4063 60.4975 63.0622 60.8121 62.6596C60.9743 62.4521 61.1342 62.2289 61.2405 61.9699C61.5208 61.286 61.5213 60.6996 61.2455 60.0111L61.0461 59.6429C60.5909 59.0205 59.8832 58.7424 59.106 58.7424C58.5587 58.7424 57.7747 58.9193 57.3458 59.2553C56.6075 59.8334 57.2724 60.4261 58.3995 60.4261L58.8307 60.4264C59.1071 60.4276 59.0957 60.3935 59.4861 60.4252C59.5413 60.4297 59.6013 60.4226 59.6565 60.427C59.7248 60.4326 59.74 60.4433 59.8298 60.4433C59.8298 60.8438 59.6481 61.3076 59.4404 61.6185C59.2384 61.9209 58.9641 62.199 58.668 62.4118C58.2179 62.7354 57.6077 63.0199 57.031 63.1335C56.0801 63.3208 55.029 63.2755 54.3991 62.5075C53.4703 61.3752 54.4733 59.2988 55.064 58.3203C55.2366 58.0344 55.4046 57.7698 55.5743 57.4891C55.9443 56.8767 56.3348 56.253 56.9312 55.8527C57.4236 55.5223 58.2026 55.3751 58.7959 55.3751C58.7658 55.263 58.5395 55.0764 58.4554 54.993C58.3293 54.8677 58.153 54.7679 57.984 54.707C57.1993 54.4246 56.472 54.8763 55.9107 55.3162C55.8558 55.3591 55.8069 55.3937 55.7587 55.4395C55.7011 55.4942 55.6609 55.5188 55.6035 55.5769C55.4923 55.6894 55.342 55.801 55.2339 55.9299L55.0194 56.1629C54.7473 56.503 54.5157 56.7457 54.2467 57.1276C54.0419 57.4184 53.8539 57.6845 53.6681 57.994C52.9642 59.167 52.2708 60.8937 52.5034 62.2499C52.6199 62.928 52.8304 63.3152 53.2944 63.7806C53.4333 63.9199 53.6263 64.0547 53.7994 64.1534C54.3672 64.4772 55.0844 64.6696 55.9009 64.6696Z" fill="#08060A"/>
<path fill-rule="evenodd" clip-rule="evenodd" d="M24.9348 23.2484L24.8142 22.9392C24.7062 22.6703 24.5174 22.2324 24.4371 21.9922C24.354 21.7435 24.2965 21.5955 24.2319 21.3207C24.0991 20.7559 24.0761 20.2788 24.2316 19.7125L24.3365 19.422C24.3772 19.3201 24.4152 19.2488 24.4636 19.1536C24.5115 19.0594 24.5608 18.9957 24.613 18.9072C24.7639 18.6509 24.9592 18.4762 25.163 18.2703C25.2688 18.1634 25.4815 18.0122 25.6103 17.9259L25.9146 17.7482C26.1646 17.618 26.444 17.5155 26.72 17.4517C27.2438 17.3304 27.6904 17.3519 28.2056 17.4792C28.7417 17.6118 29.4059 17.9954 29.705 18.4583C30.2133 19.2449 29.4754 20.1389 28.9542 20.6585C28.9156 20.6971 28.8898 20.7231 28.8511 20.7619C28.7083 20.9049 28.2385 21.2813 28.059 21.4152L26.2953 22.5431L24.9348 23.2484ZM22.7635 21.4274C22.7635 22.4931 23.0709 23.433 23.5488 24.218C23.5963 24.2962 23.633 24.359 23.6777 24.4331L24.1077 25.0351C24.3613 25.359 24.4842 25.4706 24.7668 25.7525C25.5999 26.5831 26.8078 27.2515 28.0883 27.2515C29.2224 27.2515 30.1823 26.9474 31.0749 26.415L32.0493 25.72L32.4524 25.3487C32.5109 25.2911 32.5352 25.2483 32.5899 25.1938C32.6492 25.1348 32.6798 25.0917 32.7366 25.0308L33.0065 24.6814C33.2043 24.396 33.2209 24.3165 33.3475 24.1109C33.4887 23.8815 33.6715 23.2556 33.6715 22.9048C33.6715 22.2256 33.4372 22.0114 33.3958 21.8568C33.1995 22.0002 32.9145 23.3334 32.6664 23.8613C32.4644 24.2906 32.4422 24.337 32.1758 24.7294L31.9701 24.9883C31.7717 25.1936 31.6009 25.3601 31.3656 25.5194C31.3113 25.5563 31.2935 25.5732 31.2321 25.6097C30.7179 25.9154 30.1324 26.1174 29.5201 26.1877C28.9565 26.2524 28.459 26.1927 27.9397 26.008C27.254 25.7641 26.5727 25.1953 26.1117 24.652L25.6877 24.1471C25.6492 24.1016 25.6234 24.0713 25.5856 24.0255C25.5336 23.962 25.5004 23.9368 25.4862 23.8841C25.5935 23.7381 26.4741 23.0894 26.6442 22.9769C26.7905 22.8801 26.9161 22.7905 27.0647 22.6918L29.5944 21.0562C29.7348 20.9636 29.8628 20.8694 29.9961 20.7695C30.3719 20.4882 30.8109 20.1448 31.1067 19.7806C31.2555 19.5975 31.2703 19.5627 31.3806 19.3668C31.5774 19.0173 31.5811 18.6137 31.3791 18.2666C31.0416 17.6867 30.3184 17.3295 29.7424 17.0465C29.0893 16.7257 28.5577 16.6168 27.7782 16.6168C27.0869 16.6168 26.2739 16.8654 25.8136 17.0978C25.3069 17.3537 24.7379 17.6749 24.3361 18.0814L23.742 18.7088C23.6948 18.766 23.6487 18.8273 23.6082 18.8848C23.5642 18.9471 23.5248 18.9982 23.4803 19.0665C23.3139 19.3215 23.1799 19.5932 23.0689 19.8761C22.8811 20.3546 22.7635 20.8718 22.7635 21.4274Z" fill="#08060A"/>
<path fill-rule="evenodd" clip-rule="evenodd" d="M68.3596 46.236C68.3596 46.6916 68.3953 47.0203 68.5686 47.4362C68.587 47.4801 68.606 47.5073 68.6181 47.5587C68.7077 47.538 68.9392 47.3331 68.9748 47.2616C69.231 46.7473 69.5847 45.7964 69.8061 45.4274C69.9114 45.2521 69.9712 45.1931 70.09 45.0405C70.2667 44.8139 70.4373 44.7059 70.6043 44.5567C70.7729 44.4059 71.006 44.2767 71.1881 44.1423L71.8067 43.7627C71.8458 43.7404 71.8765 43.7287 71.9195 43.7032C72.6357 43.2768 73.7914 42.8857 74.6321 42.8857C75.7999 42.8857 76.7885 43.3846 77.2862 44.3973C77.8308 45.5057 77.5727 46.9572 76.5868 47.721C76.4486 47.8281 76.3171 47.9298 76.1545 48.0114C75.4771 48.3512 74.9975 48.4522 74.2013 48.4522C74.1506 48.4522 74.1146 48.3653 74.0747 48.2863L73.3225 46.9059C73.0959 46.911 72.6821 47.1683 72.5177 47.3061C72.0177 47.7249 72.058 48.4098 72.3954 48.9127C72.6218 49.2503 72.8758 49.4623 73.2308 49.6603C73.2897 49.6931 73.3409 49.7169 73.4026 49.7467C74.3775 50.2179 75.5792 49.99 76.4991 49.4889C76.7675 49.3427 77.2656 48.9995 77.4711 48.7915L77.7641 48.5166C78.0233 48.2581 78.3111 47.916 78.5128 47.6138L78.8253 47.0835C79.0391 46.6536 79.2503 46.0433 79.2503 45.5486C79.2503 45.0931 79.239 44.8692 79.0974 44.4469C78.9397 43.9766 78.7507 43.6786 78.4479 43.2906C78.224 43.0036 78.0479 42.8697 77.8071 42.641C77.3895 42.244 76.6795 41.9197 76.1335 41.7496C75.5478 41.5672 75.0466 41.5457 74.4253 41.5457C73.7137 41.5457 72.8388 41.7781 72.2003 42.0076C71.9012 42.115 71.5596 42.2761 71.2775 42.4275C70.8599 42.6517 70.7916 42.7263 70.4551 42.9476C70.2589 43.0768 69.9023 43.3835 69.7253 43.5601C69.6664 43.6187 69.6206 43.6649 69.5615 43.7232C69.1808 44.0984 68.8232 44.6474 68.6133 45.1315C68.4976 45.3984 68.3596 45.8655 68.3596 46.236Z" fill="#08060A"/>
<path fill-rule="evenodd" clip-rule="evenodd" d="M81.5938 57.3168C81.5938 58.4044 81.9398 59.4433 82.6322 60.1301L82.9574 60.4414C83.0178 60.4888 83.0681 60.5324 83.1298 60.5788L83.3202 60.7154C83.823 61.0429 84.3103 61.2468 84.9164 61.323C85.1286 61.3496 85.5849 61.3502 85.8033 61.3075C86.4866 61.1735 87.013 60.9634 87.5807 60.5539C87.6494 60.5045 87.6952 60.4748 87.759 60.4224C87.9169 60.2931 88.131 60.1201 88.2756 59.9754C88.7517 59.4992 89.0412 59.1089 89.3483 58.5023C89.456 58.2898 89.5475 58.0508 89.6103 57.8186C89.6306 57.7437 89.657 57.6582 89.6745 57.5732L89.761 56.871L89.7227 56.4281C89.6678 56.0336 89.4971 55.629 89.2476 55.3211C89.0797 55.1139 88.9393 55.0227 88.7143 54.8907C88.5422 54.7897 88.3074 54.7569 88.0903 54.7569C87.5505 54.7569 87.0425 55.2162 86.8038 55.6561C86.7646 55.7284 86.713 55.7945 86.6945 55.8736C86.7946 56.0226 87.1248 56.4141 87.3317 56.4244C87.3756 56.4264 87.4213 56.4223 87.4645 56.4196C87.7805 56.4 88.008 56.6346 88.1937 56.7327L88.066 57.3097C87.7977 58.2521 87.2202 59.0454 86.333 59.4817C85.6813 59.8023 84.8888 59.7919 84.2784 59.3821C84.1636 59.305 84.0113 59.1867 83.9275 59.0791C83.7259 58.8205 83.5518 58.5873 83.4353 58.2641C83.1379 57.4395 83.0566 56.4818 83.2584 55.6088C83.3266 55.3138 83.431 55.0463 83.5468 54.7969L83.7445 54.4443C84.2949 53.5966 84.8419 53.1344 85.7478 52.5932C86.1789 52.3356 86.4483 52.2397 86.8494 52.0422C86.9707 51.9824 87.1102 51.9332 87.2287 51.8707C87.1578 51.765 86.8442 51.5967 86.6995 51.5392C85.7468 51.1607 84.8341 51.5563 84.112 52.1306L83.8644 52.3476C83.6348 52.5594 83.6686 52.5139 83.4591 52.751C83.1927 53.0523 83.1373 53.1156 82.886 53.4681C82.1341 54.5238 81.5938 56.0521 81.5938 57.3168Z" fill="#08060A"/>
<path fill-rule="evenodd" clip-rule="evenodd" d="M16.0258 24.8459C16.0416 24.9044 16.3435 25.2171 16.405 25.2581C16.5746 25.1448 17.0766 24.6327 17.2765 24.4778C17.3828 24.3954 17.3352 24.3949 17.4881 24.3451C17.6529 24.2913 17.8614 24.2424 18.042 24.2273C18.1544 24.4391 18.2966 24.6469 18.4039 24.8628L18.8461 25.7793C19.3183 26.7869 19.7502 27.8125 20.1639 28.8464C20.4397 29.5355 20.9869 30.8956 21.1746 31.5669C21.1961 31.6437 21.2411 31.7667 21.2471 31.8382C21.1815 31.8327 21.0555 31.7737 20.9906 31.7502L15.6517 29.7199C15.3866 29.6165 14.6248 29.3539 14.3942 29.2384C14.0967 29.0894 13.759 28.9281 13.5398 28.6816C13.4158 28.5422 13.4273 28.2988 13.5181 28.1354C13.5542 28.0706 13.6479 28.0163 13.704 27.96C13.736 27.9278 13.757 27.9039 13.7897 27.8736C13.8643 27.8048 14.0229 27.6876 14.0786 27.6118C14.0309 27.5409 13.7341 27.2056 13.6478 27.1479C13.5791 27.2503 12.2629 28.4061 12.075 28.5865L9.75335 30.7043C9.83969 30.8328 10.0682 31.0213 10.1669 31.1682C10.2279 31.1275 10.3147 31.0251 10.3782 31.0036C10.3788 31.0034 10.3899 31.0016 10.4084 30.9948L10.6461 30.8728C10.9383 30.6953 11.4549 30.5041 11.8038 30.412C12.2791 30.2867 12.7323 30.2874 13.2129 30.3991C13.6092 30.4913 14.0107 30.6672 14.3715 30.8417L15.1987 31.2197C15.4661 31.3556 15.765 31.4711 16.0431 31.5805C16.1373 31.6176 16.2314 31.6619 16.321 31.6985C16.4197 31.7388 16.502 31.7703 16.6043 31.8112C16.8035 31.8906 16.9926 31.9661 17.1828 32.0419C17.9512 32.348 18.7042 32.6503 19.4724 32.9547C19.8029 33.0857 20.592 33.4037 20.927 33.4975C21.1368 33.5562 21.3366 33.6286 21.5441 33.6724C22.6507 33.9061 22.6278 33.3848 22.3844 32.5082C22.326 32.2972 22.2461 32.0849 22.1677 31.8825C22.1252 31.7725 22.0963 31.687 22.0546 31.5829C21.7402 30.7988 21.4049 30.0146 21.0572 29.2442L20.5409 28.0754C20.4979 27.9802 20.4581 27.8848 20.4176 27.786L19.0463 24.566C18.9139 24.2392 18.8002 23.9163 18.8002 23.5402C18.8002 23.3451 18.8603 23.202 18.9268 23.065C19.0517 22.8075 19.0098 22.9107 19.192 22.7282L19.6717 22.2958C19.7359 22.2464 19.771 22.1907 19.8341 22.1484C19.7399 22.0081 19.5403 21.8461 19.455 21.7189L18.9254 22.2046C18.8793 22.2507 18.8587 22.2591 18.8132 22.299L18.5031 22.5911C18.459 22.6318 18.4354 22.6408 18.3906 22.685C18.1834 22.8894 17.9494 23.0707 17.7448 23.2782L17.1073 23.8624C17.0632 23.9031 17.0396 23.9121 16.9947 23.9564L16.6733 24.2544C16.5094 24.3806 16.4038 24.5207 16.2398 24.6469C16.2127 24.6678 16.0372 24.8304 16.0258 24.8459Z" fill="#08060A"/>
<path fill-rule="evenodd" clip-rule="evenodd" d="M32.5341 15.6373C32.5341 16.3279 32.6533 16.8678 32.829 17.4737C32.9401 17.8569 33.1018 18.2375 33.2695 18.598C33.488 19.0677 33.7953 19.6086 34.1496 19.9883C34.2594 20.106 34.355 20.2423 34.4772 20.349C35.101 20.8934 35.6296 21.2696 36.4904 21.4857C37.2785 21.6835 38.1006 21.6638 38.9028 21.5056C39.3614 21.4154 39.844 21.2558 40.26 21.055C40.9893 20.7032 41.2848 20.5022 41.911 20.0036C42.1385 19.8226 42.4613 19.4475 42.6347 19.2134C42.805 18.9837 42.945 18.7223 43.0506 18.4254C43.099 18.2894 43.1359 18.0832 43.1479 17.9212C43.1607 17.7512 43.2713 16.8599 43.0467 16.769C42.9471 16.7288 42.7718 16.8883 42.7387 17.0149C42.5456 17.7516 42.2455 18.6429 41.7494 19.2413C41.7017 19.2989 41.6611 19.3594 41.6113 19.4129L41.2417 19.766C40.932 20.0256 40.5879 20.1991 40.2202 20.3624C39.5016 20.6816 38.5081 20.7764 37.7243 20.5648L37.2879 20.4157C37.1372 20.3541 37.03 20.302 36.8878 20.2305C36.294 19.9316 35.7368 19.3443 35.3603 18.8156C35.1155 18.472 34.8968 18.0825 34.7325 17.6891C34.6704 17.5406 34.6133 17.4167 34.561 17.2588C34.4581 16.9482 34.3747 16.6937 34.3048 16.346C34.0197 14.9298 34.2551 13.3575 35.1748 12.3257C35.3788 12.0968 35.6123 11.9156 35.8736 11.751C36.1344 11.5868 36.5093 11.4729 36.8258 11.429C37.5042 11.3348 38.6747 11.4722 39.0748 12.0714C39.4528 12.6376 38.9886 13.2757 39.8213 13.4574C40.0449 13.5062 40.3168 13.5294 40.5231 13.4143C40.8139 13.2523 41.1312 12.3379 40.611 11.7252C40.1279 11.1561 39.1549 10.947 38.3414 10.947C37.5112 10.947 36.9018 11.0325 36.1034 11.2757C36.0152 11.3026 35.9388 11.3305 35.8578 11.3574C35.6997 11.4096 35.5653 11.4724 35.4169 11.5362C34.9892 11.7198 34.5779 11.9552 34.2175 12.2474C34.1801 12.2776 34.1684 12.285 34.1323 12.317C33.9171 12.5083 33.7639 12.6435 33.5721 12.8582C33.4224 13.0257 33.2811 13.2044 33.1663 13.3985C33.086 13.5338 33.0023 13.6583 32.9404 13.8089C32.8455 14.0402 32.7428 14.2582 32.6796 14.5111C32.5938 14.8546 32.5341 15.2171 32.5341 15.6373Z" fill="#08060A"/>
<path fill-rule="evenodd" clip-rule="evenodd" d="M34.9467 9.60722L32.3791 9.46965L35.4809 10.7583L36.2219 7.76893L34.9467 9.60722Z" fill="#08060A"/>
<path fill-rule="evenodd" clip-rule="evenodd" d="M7.37528 40.2223C7.11465 40.2223 6.84914 40.1691 6.63427 40.1193C6.66744 40.2608 6.98428 40.7468 7.05329 41.2134C7.07568 41.3642 7.07321 41.6016 7.11635 41.769C7.13677 41.8484 7.16723 41.9296 7.18581 42.009C7.72904 41.6463 7.97776 41.5452 8.87455 41.5452C8.77546 41.3585 8.47223 41.1076 8.42572 40.8415C8.37493 40.55 8.50769 40.0297 8.51266 39.81C8.46785 39.8313 8.43064 39.8419 8.38032 39.867C8.33298 39.8906 8.29696 39.9088 8.25408 39.9303C7.99744 40.0583 7.68855 40.2223 7.37528 40.2223Z" fill="#08060A"/>
<path fill-rule="evenodd" clip-rule="evenodd" d="M121.068 51.1599C120.858 51.218 120.671 51.4359 120.743 51.7186C120.799 51.9358 121.027 52.1336 121.323 52.052C121.908 51.8906 121.674 50.992 121.068 51.1599Z" fill="#FCFEFF"/>
<path fill-rule="evenodd" clip-rule="evenodd" d="M107.218 29.5003V29.519L107.238 29.5034L107.218 29.5003Z" fill="#08060A"/>
</svg>
